<svg width="13" height="13" viewBox="0 0 13 13" fill="none" xmlns="http://www.w3.org/2000/svg">
    <path d="M9.11 0.0527801C9.22856 -0.00649509 9.3658 -0.0162672 9.49157 0.0256117C9.61733 0.0674906 9.72131 0.157593 9.78067 0.276113L10.114 0.94278C10.1439 1.00159 10.1619 1.06574 10.167 1.13154C10.172 1.19733 10.1639 1.26347 10.1433 1.32614C10.1226 1.38881 10.0897 1.44677 10.0466 1.49668C10.0034 1.54659 9.95078 1.58746 9.89174 1.61694C9.8327 1.64641 9.76841 1.66391 9.70258 1.66842C9.63675 1.67293 9.57067 1.66437 9.50816 1.64322C9.44566 1.62207 9.38795 1.58876 9.33838 1.54521C9.28881 1.50165 9.24835 1.44871 9.21933 1.38945L8.886 0.72278C8.82677 0.604139 8.8171 0.46683 8.85911 0.341057C8.90111 0.215284 8.99136 0.112015 9.11 0.0527801ZM11.22 2.94278C11.2792 2.82432 11.3831 2.7342 11.5087 2.6922C11.6343 2.6502 11.7714 2.65976 11.89 2.71878L12.5567 3.05211C12.6159 3.08113 12.6689 3.12159 12.7124 3.17116C12.756 3.22073 12.7893 3.27844 12.8104 3.34094C12.8316 3.40345 12.8402 3.46953 12.8356 3.53536C12.8311 3.60119 12.8136 3.66548 12.7842 3.72452C12.7547 3.78356 12.7138 3.83618 12.6639 3.87935C12.614 3.92252 12.556 3.95538 12.4934 3.97604C12.4307 3.9967 12.3646 4.00476 12.2988 3.99973C12.233 3.99471 12.1688 3.97671 12.11 3.94678L11.4433 3.61345C11.3247 3.55421 11.2344 3.45028 11.1924 3.3245C11.1504 3.19873 11.1608 3.06142 11.22 2.94278ZM12.3533 1.18611C12.4417 1.09133 12.4897 0.965966 12.4875 0.836432C12.4852 0.706898 12.4327 0.583308 12.3411 0.491699C12.2495 0.40009 12.1259 0.347616 11.9963 0.34533C11.8668 0.343045 11.7414 0.391127 11.6467 0.479447L10.98 1.14611C10.8917 1.2409 10.8436 1.36626 10.8459 1.4958C10.8482 1.62533 10.9006 1.74892 10.9923 1.84053C11.0839 1.93214 11.2075 1.98461 11.337 1.9869C11.4665 1.98918 11.5919 1.9411 11.6867 1.85278L12.3533 1.18611ZM10 7.83278C10 9.15886 9.47322 10.4306 8.53553 11.3683C7.59785 12.306 6.32608 12.8328 5 12.8328C3.67392 12.8328 2.40215 12.306 1.46447 11.3683C0.526784 10.4306 0 9.15886 0 7.83278C0 6.5067 0.526784 5.23493 1.46447 4.29725C2.40215 3.35956 3.67392 2.83278 5 2.83278C6.32608 2.83278 7.59785 3.35956 8.53553 4.29725C9.47322 5.23493 10 6.5067 10 7.83278ZM10.3533 3.18611L9.58133 3.95945C9.36587 3.70442 9.12949 3.46782 8.87467 3.25211L9.64667 2.47945C9.69244 2.43032 9.74764 2.39092 9.80897 2.36359C9.87031 2.33626 9.93652 2.32157 10.0037 2.32039C10.0708 2.3192 10.1375 2.33155 10.1997 2.3567C10.262 2.38185 10.3185 2.41928 10.366 2.46675C10.4135 2.51423 10.4509 2.57079 10.4761 2.63305C10.5012 2.69531 10.5136 2.76199 10.5124 2.82913C10.5112 2.89626 10.4965 2.96247 10.4692 3.02381C10.4419 3.08514 10.4025 3.14034 10.3533 3.18611Z" fill="white"/>
</svg>
