<svg width="17" height="17" viewBox="0 0 17 17" fill="none" xmlns="http://www.w3.org/2000/svg">
<path d="M8.5697 9.86819L12.4953 10.915C13.2565 11.118 13.7861 11.8073 13.7861 12.5951V15.8496H0.571289V12.5951C0.571289 11.8073 1.10089 11.118 1.86206 10.915L5.78764 9.86819" stroke="white" stroke-width="1.14286" stroke-miterlimit="10" stroke-linecap="round" stroke-linejoin="round"/>
<path d="M11.3516 15.8496V10.6101" stroke="white" stroke-width="1.14286" stroke-miterlimit="10" stroke-linecap="round" stroke-linejoin="round"/>
<path d="M5.78809 8.84333V10.2158C5.78809 10.984 6.41085 11.6068 7.17911 11.6068C7.94738 11.6068 8.57014 10.984 8.57014 10.2158V8.84333" stroke="white" stroke-width="1.14286" stroke-miterlimit="10" stroke-linecap="round" stroke-linejoin="round"/>
<path d="M4.04883 4.04911V6.04292C4.04883 7.77148 5.45008 9.17273 7.17864 9.17273C8.9072 9.17273 10.3085 7.77148 10.3085 6.04292V4.04911H4.04883Z" stroke="white" stroke-width="1.14286" stroke-miterlimit="10" stroke-linecap="round" stroke-linejoin="round"/>
<path d="M3.00586 10.6101V15.8496" stroke="white" stroke-width="1.14286" stroke-miterlimit="10" stroke-linecap="round" stroke-linejoin="round"/>
<path d="M10.3085 4.04895H4.04883V2.31017C4.04883 1.34987 4.82732 0.571381 5.78761 0.571381H8.56967C9.52997 0.571381 10.3085 1.34987 10.3085 2.31017V4.04895Z" stroke="white" stroke-width="1.14286" stroke-miterlimit="10" stroke-linecap="round" stroke-linejoin="round"/>
<path d="M14.1693 4.69229C14.1722 4.66545 14.17 4.63823 14.1628 4.61239C14.1555 4.58656 14.1434 4.5627 14.1272 4.54238C14.111 4.52206 14.091 4.50574 14.0687 4.49448C14.0463 4.48322 14.0221 4.47729 13.9975 4.47705H12.935C12.9063 4.47671 12.8781 4.4686 12.8529 4.45344C12.8277 4.43828 12.8062 4.41653 12.7905 4.39011C12.7747 4.36369 12.7651 4.33341 12.7625 4.30194C12.7598 4.27047 12.7643 4.23876 12.7754 4.20963L14.1284 0.732276C14.1412 0.697277 14.1632 0.667259 14.1916 0.64603C14.2199 0.624801 14.2534 0.613318 14.2877 0.613037H15.8523C15.9745 0.613037 16.058 0.750181 16.0133 0.877419L15.2428 3.05343C15.2322 3.08251 15.2282 3.11398 15.2312 3.14513C15.2342 3.17628 15.244 3.20616 15.2598 3.2322C15.2756 3.25824 15.297 3.27964 15.322 3.29456C15.3471 3.30947 15.375 3.31745 15.4035 3.31781H16.3981C16.5407 3.31781 16.6221 3.50029 16.5359 3.62753L13.949 7.45459C13.9275 7.48621 13.8829 7.46602 13.8867 7.42716L14.1693 4.69229Z" stroke="white" stroke-width="0.761905" stroke-linecap="round" stroke-linejoin="round"/>
</svg>
