<svg width="18" height="18" viewBox="0 0 18 18" fill="none" xmlns="http://www.w3.org/2000/svg">
<path d="M8.97494 10.3345L13.086 11.4308C13.8831 11.6433 14.4377 12.3652 14.4377 13.1902V16.5985H0.598633V13.1902C0.598633 12.3652 1.15325 11.6433 1.95039 11.4308L6.06144 10.3345" stroke="white" stroke-width="1.19685" stroke-miterlimit="10" stroke-linecap="round" stroke-linejoin="round"/>
<path d="M11.8887 16.5985V11.1114" stroke="white" stroke-width="1.19685" stroke-miterlimit="10" stroke-linecap="round" stroke-linejoin="round"/>
<path d="M6.06152 9.26122V10.6985C6.06152 11.5031 6.71371 12.1553 7.51827 12.1553C8.32283 12.1553 8.97502 11.5031 8.97502 10.6985V9.26122" stroke="white" stroke-width="1.19685" stroke-miterlimit="10" stroke-linecap="round" stroke-linejoin="round"/>
<path d="M4.24023 4.24039V6.32839C4.24023 8.13862 5.70769 9.60608 7.51792 9.60608C9.32815 9.60608 10.7956 8.13862 10.7956 6.32839V4.24039H4.24023Z" stroke="white" stroke-width="1.19685" stroke-miterlimit="10" stroke-linecap="round" stroke-linejoin="round"/>
<path d="M3.14844 11.1114V16.5985" stroke="white" stroke-width="1.19685" stroke-miterlimit="10" stroke-linecap="round" stroke-linejoin="round"/>
<path d="M10.7956 4.24036H4.24023V2.41942C4.24023 1.41375 5.0555 0.598485 6.06117 0.598485H8.97467C9.98033 0.598485 10.7956 1.41375 10.7956 2.41942V4.24036Z" stroke="white" stroke-width="1.19685" stroke-miterlimit="10" stroke-linecap="round" stroke-linejoin="round"/>
<path d="M14.8393 4.91395C14.8424 4.88585 14.8401 4.85733 14.8325 4.83028C14.8249 4.80322 14.8122 4.77824 14.7952 4.75696C14.7782 4.73568 14.7574 4.71858 14.7339 4.70679C14.7105 4.69501 14.6851 4.68879 14.6594 4.68855H13.5468C13.5167 4.68819 13.4871 4.6797 13.4607 4.66382C13.4343 4.64794 13.4119 4.62517 13.3954 4.5975C13.3788 4.56983 13.3688 4.53812 13.366 4.50516C13.3633 4.4722 13.3679 4.439 13.3796 4.40848L14.7965 0.76684C14.8099 0.730188 14.833 0.698752 14.8627 0.67652C14.8924 0.654288 14.9274 0.642262 14.9633 0.641968H16.6018C16.7298 0.641968 16.8173 0.785591 16.7705 0.918841L15.9635 3.19766C15.9525 3.22811 15.9483 3.26107 15.9514 3.29369C15.9545 3.32631 15.9648 3.35761 15.9814 3.38488C15.9979 3.41214 16.0203 3.43456 16.0465 3.45018C16.0727 3.4658 16.102 3.47416 16.1318 3.47453H17.1734C17.3228 3.47453 17.408 3.66563 17.3177 3.79888L14.6086 7.80676C14.5861 7.83987 14.5394 7.81873 14.5434 7.77804L14.8393 4.91395Z" stroke="white" stroke-width="0.797902" stroke-linecap="round" stroke-linejoin="round"/>
</svg>
