<svg width="16" height="19" viewBox="0 0 16 19" fill="none" xmlns="http://www.w3.org/2000/svg">
<path d="M4.29102 7.31273V9.3874C4.29102 11.3693 5.89766 12.976 7.8796 12.976C9.86155 12.976 11.4682 11.3693 11.4682 9.3874V7.31273" stroke="white" stroke-width="1.40625" stroke-miterlimit="10" stroke-linecap="round" stroke-linejoin="round"/>
<path d="M12.5452 5.36836H3.21484V6.87557C6.32497 8.31101 9.43505 8.31101 12.5452 6.87557V5.36836Z" stroke="white" stroke-width="1.40625" stroke-miterlimit="10" stroke-linecap="round" stroke-linejoin="round"/>
<path d="M8.95664 1.57332V0.703121H6.80349V1.57332C5.14735 2.04242 3.93262 3.56193 3.93262 5.36829H11.8275C11.8275 3.56193 10.6128 2.04242 8.95664 1.57332Z" stroke="white" stroke-width="1.40625" stroke-miterlimit="10" stroke-linecap="round" stroke-linejoin="round"/>
<path d="M8.95605 1.57312V2.85608" stroke="white" stroke-width="1.40625" stroke-miterlimit="10" stroke-linecap="round" stroke-linejoin="round"/>
<path d="M6.80371 2.85632V1.57337" stroke="white" stroke-width="1.40625" stroke-miterlimit="10" stroke-linecap="round" stroke-linejoin="round"/>
<path d="M4.00879 12.8066L6.08619 18.0001H9.67478L11.7522 12.8066" stroke="white" stroke-width="1.40625" stroke-miterlimit="10" stroke-linecap="round" stroke-linejoin="round"/>
<path d="M7.87988 18.0001V12.9761" stroke="white" stroke-width="1.40625" stroke-miterlimit="10" stroke-linecap="round" stroke-linejoin="round"/>
<path d="M5.78765 12.2987C2.92654 12.6252 0.703125 15.0516 0.703125 18.0001M15.0575 18.0001C15.0575 15.0516 12.8341 12.6252 9.97295 12.2987" stroke="white" stroke-width="1.40625" stroke-miterlimit="10" stroke-linecap="round" stroke-linejoin="round"/>
</svg>
