<svg width="15" height="15" viewBox="0 0 15 15" fill="none" xmlns="http://www.w3.org/2000/svg">
    <path d="M7.38041 0C6.85122 0 6.36837 0.12625 5.99747 0.350437C5.62662 0.574687 5.34919 0.921375 5.34919 1.33928C5.34919 1.75716 5.62662 2.10388 5.9975 2.32809C6.36844 2.55231 6.85125 2.67853 7.38047 2.67853C7.73747 2.67853 8.07322 2.62088 8.36791 2.51466L7.77822 3.10434L11.6231 6.94938L12.2861 6.28641L8.47356 2.47391C8.5737 2.43267 8.67059 2.38395 8.76341 2.32816C8.9695 2.20353 9.14653 2.04097 9.26331 1.8495L9.85528 2.44153L9.54597 2.75091L12.9144 6.11934L13.4226 4.59466L10.5624 1.73434L10.2531 2.04378L9.39962 1.19034C9.34284 0.839094 9.08922 0.547531 8.76337 0.350469C8.39244 0.12625 7.90962 0 7.38041 0ZM10.6409 0.39875L10.3316 0.708125L14.0662 4.44266L13.2864 6.78191L8.82516 11.9296L9.13534 12.2398L14.2027 6.49675L14.8368 4.59456L10.6409 0.39875ZM7.38041 0.5625C7.81772 0.5625 8.20984 0.673125 8.47234 0.831875C8.73484 0.990531 8.84916 1.17281 8.84916 1.33928C8.84916 1.50575 8.73478 1.68803 8.47234 1.84672C8.20984 2.00541 7.81772 2.11609 7.38041 2.11609C6.94309 2.11609 6.55097 2.00541 6.28853 1.84672C6.02603 1.68803 5.91166 1.50578 5.91166 1.33928C5.91166 1.17278 6.02603 0.990531 6.28853 0.831844C6.55097 0.673094 6.94312 0.5625 7.38041 0.5625ZM7.38041 3.50212L1.06056 9.82187L4.90556 13.6669L11.2253 7.34709L7.38041 3.50212ZM0.662812 10.2196L0 10.8826L3.84478 14.7275L4.50775 14.0646L0.662844 10.2197L0.662812 10.2196Z" fill="white"/>
</svg>
