<svg width="15" height="14" viewBox="0 0 15 14" fill="none" xmlns="http://www.w3.org/2000/svg">
    <path d="M3.90125 0C3.895 0.320625 3.8825 0.632812 3.86063 0.9375H9.33875C9.34812 0.630313 9.35125 0.318125 9.345 0H3.90125ZM3.81375 1.5C3.41063 5.42188 1.71312 8.02813 0 10.1938L3.60438 13.8C6.79188 9.87813 9.01063 6.35938 9.31375 1.5H8.40125C8.3325 3.03125 7.71375 4.93125 6.8825 6.77188C6.04187 8.63125 4.97938 10.4281 4.00125 11.6969L3.60125 11.2969C4.52937 10.075 5.56062 8.33125 6.37 6.54063C7.17937 4.74688 7.76687 2.89688 7.83875 1.5H6.90125C6.8325 3.03125 6.21375 4.93125 5.3825 6.77188C4.72 8.2375 3.92 9.66562 3.12937 10.825L2.72625 10.4187C3.47312 9.30625 4.23875 7.9375 4.87 6.54063C5.67937 4.74688 6.26687 2.89688 6.33875 1.5H5.40125C5.3325 3.03125 4.71375 4.93125 3.8825 6.77188C3.38562 7.875 2.81063 8.95313 2.22 9.9125L1.81063 9.50313C2.36063 8.59063 2.90438 7.575 3.37 6.54063C4.17938 4.74688 4.76687 2.89688 4.83875 1.5H3.81375ZM9.81375 6.15625C9.7825 6.23125 9.74812 6.31875 9.71375 6.42812C9.60437 6.78125 9.495 7.275 9.40125 7.77188C9.27625 8.4375 9.18562 9.07812 9.13562 9.4375H10.4919C10.4419 9.07812 10.3513 8.4375 10.2263 7.77188C10.1325 7.275 10.0231 6.78125 9.91375 6.42812C9.87938 6.31875 9.845 6.23125 9.81375 6.15625ZM11.8138 6.15625C11.7825 6.23125 11.7481 6.31875 11.7137 6.42812C11.6044 6.78125 11.495 7.275 11.4012 7.77188C11.2762 8.4375 11.1856 9.07812 11.1356 9.4375H12.4919C12.4419 9.07812 12.3513 8.4375 12.2263 7.77188C12.1325 7.275 12.0231 6.78125 11.9138 6.42812C11.8794 6.31875 11.845 6.23125 11.8138 6.15625ZM13.8138 6.15625C13.7825 6.23125 13.7481 6.31875 13.7137 6.42812C13.6044 6.78125 13.495 7.275 13.4012 7.77188C13.2762 8.4375 13.1856 9.07812 13.1356 9.4375H14.4919C14.4419 9.07812 14.3513 8.4375 14.2263 7.77188C14.1325 7.275 14.0231 6.78125 13.9138 6.42812C13.8794 6.31875 13.845 6.23125 13.8138 6.15625ZM9.095 10V13.9375H10.5325V10H9.095ZM11.095 10V13.9375H12.5325V10H11.095ZM13.095 10V13.9375H14.5325V10H13.095Z" fill="white"/>
</svg>
