<svg width="21" height="24" viewBox="0 0 21 24" fill="none" xmlns="http://www.w3.org/2000/svg">
<g clip-path="url(#clip0_888_3557)">
<path d="M10.5 0.375C9.76131 0.375 9.02986 0.520495 8.34741 0.803178C7.66495 1.08586 7.04485 1.50019 6.52252 2.02252C6.0002 2.54485 5.58586 3.16495 5.30318 3.84741C5.02049 4.52986 4.875 5.26131 4.875 6C4.875 6.73869 5.02049 7.47014 5.30318 8.15259C5.58586 8.83505 6.0002 9.45515 6.52252 9.97748C7.04485 10.4998 7.66495 10.9141 8.34741 11.1968C9.02986 11.4795 9.76131 11.625 10.5 11.625C11.2387 11.625 11.9701 11.4795 12.6526 11.1968C13.3351 10.9141 13.9551 10.4998 14.4775 9.97748C14.9998 9.45515 15.4141 8.83505 15.6968 8.15259C15.9795 7.47014 16.125 6.73869 16.125 6C16.125 5.26131 15.9795 4.52986 15.6968 3.84741C15.4141 3.16495 14.9998 2.54485 14.4775 2.02252C13.9551 1.50019 13.3351 1.08586 12.6526 0.803178C11.9701 0.520495 11.2387 0.375 10.5 0.375ZM13.3125 15.0375C13.0594 15.0141 12.7969 15 12.5344 15H8.46094C8.19844 15 7.94062 15.0141 7.68281 15.0375V18.2016C8.45625 18.5578 8.99531 19.3406 8.99531 20.2453C8.99531 21.4875 7.9875 22.4953 6.74531 22.4953C5.50312 22.4953 4.49531 21.4875 4.49531 20.2453C4.49531 19.3359 5.03438 18.5531 5.80781 18.2016V15.4641C2.85938 16.5469 0.75 19.3875 0.75 22.7156C0.75 23.4234 1.32656 24 2.03438 24H18.9609C19.6688 24 20.2453 23.4234 20.2453 22.7156C20.2453 19.3875 18.1359 16.5516 15.1828 15.4688V17.2219C16.275 17.6062 17.0578 18.6516 17.0578 19.875V21.375C17.0578 21.8906 16.6359 22.3125 16.1203 22.3125C15.6047 22.3125 15.1828 21.8906 15.1828 21.375V19.875C15.1828 19.3594 14.7609 18.9375 14.2453 18.9375C13.7297 18.9375 13.3078 19.3594 13.3078 19.875V21.375C13.3078 21.8906 12.8859 22.3125 12.3703 22.3125C11.8547 22.3125 11.4328 21.8906 11.4328 21.375V19.875C11.4328 18.6516 12.2156 17.6109 13.3078 17.2219V15.0375H13.3125Z" fill="white"/>
</g>
<defs>
<clipPath id="clip0_888_3557">
<rect width="21" height="24" fill="white"/>
</clipPath>
</defs>
</svg>
