<svg width="18" height="18" viewBox="0 0 18 18" fill="none" xmlns="http://www.w3.org/2000/svg">
<path d="M8.18074 10.8359L11.9279 11.8351C12.6545 12.0289 13.16 12.6869 13.16 13.4388V16.5454H0.545898V13.4388C0.545898 12.6869 1.05142 12.0289 1.778 11.8351L5.52514 10.8359" stroke="white" stroke-width="1.09091" stroke-miterlimit="10" stroke-linecap="round" stroke-linejoin="round"/>
<path d="M10.8359 16.5454V11.5441" stroke="white" stroke-width="1.09091" stroke-miterlimit="10" stroke-linecap="round" stroke-linejoin="round"/>
<path d="M5.52539 9.85761V11.1677C5.52539 11.901 6.11985 12.4955 6.85319 12.4955C7.58653 12.4955 8.18099 11.901 8.18099 11.1677V9.85761" stroke="white" stroke-width="1.09091" stroke-miterlimit="10" stroke-linecap="round" stroke-linejoin="round"/>
<path d="M3.86523 5.28127V7.18445C3.86523 8.83444 5.20279 10.172 6.85278 10.172C8.50277 10.172 9.84033 8.83444 9.84033 7.18445V5.28127H3.86523Z" stroke="white" stroke-width="1.09091" stroke-miterlimit="10" stroke-linecap="round" stroke-linejoin="round"/>
<path d="M2.87012 11.5441V16.5454" stroke="white" stroke-width="1.09091" stroke-miterlimit="10" stroke-linecap="round" stroke-linejoin="round"/>
<path d="M9.84033 5.28125H3.86523V3.6215C3.86523 2.70486 4.60834 1.96175 5.52498 1.96175H8.18058C9.09722 1.96175 9.84033 2.70486 9.84033 3.6215V5.28125Z" stroke="white" stroke-width="1.09091" stroke-miterlimit="10" stroke-linecap="round" stroke-linejoin="round"/>
<path d="M16.5459 2.53716H14.5542V0.545459C13.4542 0.545459 12.5625 1.43718 12.5625 2.53716C12.5625 3.27392 12.9636 3.91571 13.5583 4.26021V8.1803C13.5583 8.73031 14.0042 9.17615 14.5542 9.17615C15.1042 9.17615 15.55 8.73031 15.55 8.1803V4.26021C16.1448 3.91571 16.5459 3.27392 16.5459 2.53716Z" stroke="white" stroke-width="1.09091" stroke-miterlimit="10" stroke-linecap="round" stroke-linejoin="round"/>
</svg>
