<svg width="18" height="18" viewBox="0 0 18 18" fill="none" xmlns="http://www.w3.org/2000/svg">
<path d="M14.3127 10.0679H2.7495C1.52439 10.0679 0.53125 9.07473 0.53125 7.84962C0.53125 6.62452 1.52439 5.63138 2.7495 5.63138H14.3127C15.5378 5.63138 16.5309 6.62452 16.5309 7.84962C16.5309 9.07473 15.5378 10.0679 14.3127 10.0679Z" stroke="white" stroke-width="1.06222" stroke-miterlimit="10"/>
<path d="M10.3867 10.3923L10.2559 14.8564C10.2286 15.7889 9.46472 16.5308 8.53176 16.5308C7.59876 16.5308 6.83493 15.7889 6.80758 14.8564L6.67676 10.3923" stroke="white" stroke-width="1.06222" stroke-miterlimit="10"/>
<path d="M6.52672 5.30554L6.49956 4.11337C6.47357 2.97344 7.39053 2.03537 8.53076 2.03537C9.67099 2.03537 10.5879 2.97344 10.562 4.11337L10.5348 5.30554" stroke="white" stroke-width="1.06222" stroke-miterlimit="10"/>
<path d="M6.75811 13.2011L4.82832 14.7496C4.50411 15.0098 4.38657 15.4505 4.53817 15.8376C4.69753 16.2446 5.11399 16.4904 5.54734 16.4333L7.48643 16.1779" stroke="white" stroke-width="1.06222" stroke-miterlimit="10"/>
<path d="M10.3035 13.2011L12.2333 14.7496C12.5575 15.0098 12.6751 15.4505 12.5235 15.8376C12.3641 16.2446 11.9477 16.4904 11.5143 16.4333L9.5752 16.1779" stroke="white" stroke-width="1.06222" stroke-miterlimit="10"/>
<path d="M3.17188 5.63101V10.0675" stroke="white" stroke-width="1.06222" stroke-miterlimit="10"/>
<path d="M13.8887 5.63138V10.0679" stroke="white" stroke-width="1.06222" stroke-miterlimit="10"/>
<path d="M5.97949 0.531128H11.082" stroke="white" stroke-width="1.06222" stroke-miterlimit="10" stroke-linecap="round"/>
<path d="M8.53125 2.03528V0.530843" stroke="white" stroke-width="1.06222" stroke-miterlimit="10"/>
</svg>
