<svg width="24" height="24" viewBox="0 0 24 24" fill="none" xmlns="http://www.w3.org/2000/svg">
<path fill-rule="evenodd" clip-rule="evenodd" d="M8.957 11.8795C7.976 11.619 6 10.8885 6 9.2315C6 7.028 8.689 4 8.689 4C8.689 4 9.5645 2.5 12.0275 2.5C14.49 2.5 15.7485 4 15.7485 4C15.7485 4 17.5 5.9635 17.5 9.2315C17.5 10.9155 16.512 11.599 15.5545 11.8665C14.7765 12.7915 13.577 13.378 12.25 13.378C10.929 13.378 9.7355 12.7975 8.957 11.8795ZM9.247 10.4585C9.709 11.5705 10.863 12.3785 12.2495 12.3785C12.8195 12.3785 13.35 12.2415 13.8095 12.0035L13.7785 12C13.7785 12 16.7675 9.116 14.25 5.5C13.9765 4.9915 9.811 6.25 9.25 7C8.913 7.45 9.069 9.1625 9.2475 10.4585" fill="white"/>
<path d="M7.2165 16.7209C6.91484 16.9056 6.6882 17.1911 6.57662 17.5268C6.46504 17.8625 6.4757 18.2268 6.60671 18.5555C6.73773 18.8841 6.98067 19.1558 7.29261 19.3226C7.60456 19.4895 7.96543 19.5407 8.31148 19.4672C8.65753 19.3938 8.96649 19.2004 9.18377 18.9212C9.40105 18.6421 9.51267 18.2951 9.49892 17.9416C9.48516 17.5881 9.34691 17.2509 9.10859 16.9894C8.87027 16.728 8.54721 16.5592 8.1965 16.5129C8.17777 16.4458 8.1606 16.3782 8.145 16.3104C8.07691 16.0014 8.02351 15.6894 7.985 15.3754C7.94367 15.0579 7.92029 14.7384 7.915 14.4184C7.91419 14.3305 7.91669 14.2426 7.9225 14.1549C8.11483 14.0995 8.30733 14.05 8.5 14.0064C8.7205 13.9564 8.8515 14.2164 8.957 14.4274L8.9625 14.4384L9 14.5119H14.8745C14.989 14.2949 15.2485 13.9489 15.5 14.0064C15.7687 14.0674 16.0368 14.1395 16.3045 14.2229L16.303 14.2234C16.302 14.2224 16.302 14.2227 16.303 14.2244C16.305 14.2314 16.316 14.2644 16.327 14.3344C16.3397 14.4157 16.348 14.5199 16.352 14.6469C16.359 14.8989 16.3445 15.2054 16.315 15.5144C16.285 15.8229 16.2405 16.1214 16.1905 16.3569C16.1795 16.4092 16.1685 16.4569 16.1575 16.4999H15.5C15.4072 16.4999 15.3162 16.5258 15.2372 16.5746C15.1583 16.6235 15.0945 16.6933 15.053 16.7764L14.553 17.7764C14.5182 17.8457 14.5001 17.9222 14.5 17.9999V18.9999C14.5 19.1325 14.5527 19.2596 14.6464 19.3534C14.7402 19.4472 14.8674 19.4999 15 19.4999H16V18.4999H15.5V18.1179L15.809 17.4999H17.191L17.5 18.1179V18.4999H17V19.4999H18C18.1326 19.4999 18.2598 19.4472 18.3536 19.3534C18.4473 19.2596 18.5 19.1325 18.5 18.9999V17.9999C18.4999 17.9222 18.4818 17.8457 18.447 17.7764L17.947 16.7764C17.9055 16.6933 17.8417 16.6235 17.7628 16.5746C17.6838 16.5258 17.5928 16.4999 17.5 16.4999H17.182C17.2355 16.2334 17.28 15.9224 17.31 15.6104C17.343 15.2734 17.36 14.9239 17.3515 14.6189L17.351 14.6049C19.345 15.4474 21 16.8329 21 18.2849V20.9999H3V18.2849C3 16.7689 4.805 15.3249 6.9155 14.4964C6.921 14.8074 6.9505 15.1589 6.993 15.4994C7.039 15.8669 7.1015 16.2324 7.1705 16.5334C7.1855 16.5977 7.20083 16.6602 7.2165 16.7209Z" fill="white"/>
<path d="M8 18.5072C8.269 18.5072 8.5 18.2872 8.5 17.9997C8.5 17.7127 8.269 17.4922 8 17.4922C7.731 17.4922 7.5 17.7122 7.5 17.9997C7.5 18.2867 7.731 18.5072 8 18.5072Z" fill="white"/>
</svg>
