<svg width="18" height="18" viewBox="0 0 18 18" fill="none" xmlns="http://www.w3.org/2000/svg">
<path d="M8.5459 4.98985C9.13527 4.98985 9.7005 4.75573 10.1172 4.33898C10.534 3.92223 10.7681 3.357 10.7681 2.76763C10.7681 2.17826 10.534 1.61303 10.1172 1.19628C9.7005 0.779536 9.13527 0.54541 8.5459 0.54541C7.95653 0.54541 7.3913 0.779536 6.97455 1.19628C6.5578 1.61303 6.32368 2.17826 6.32368 2.76763C6.32368 3.357 6.5578 3.92223 6.97455 4.33898C7.3913 4.75573 7.95653 4.98985 8.5459 4.98985ZM8.5459 4.98985V16.5454M8.5459 16.5454C7.49532 16.5454 6.45504 16.3385 5.48443 15.9364C4.51383 15.5344 3.63191 14.9451 2.88904 14.2023C2.14618 13.4594 1.5569 12.5775 1.15486 11.6069C0.752824 10.6363 0.545898 9.59599 0.545898 8.54541L2.32368 9.4343M8.5459 16.5454C9.59647 16.5454 10.6368 16.3385 11.6074 15.9364C12.578 15.5344 13.4599 14.9451 14.2028 14.2023C14.9456 13.4594 15.5349 12.5775 15.9369 11.6069C16.339 10.6363 16.5459 9.59599 16.5459 8.54541L14.7681 9.4343" stroke="white" stroke-width="1.09091" stroke-linecap="round" stroke-linejoin="round"/>
</svg>
