<svg width="24" height="24" viewBox="0 0 24 24" fill="none" xmlns="http://www.w3.org/2000/svg">
<path d="M4 22C3.45 22 2.97933 21.8043 2.588 21.413C2.19667 21.0217 2.00067 20.5507 2 20V8C2 7.58333 2.11267 7.20833 2.338 6.875C2.56333 6.54167 2.86733 6.3 3.25 6.15L15.9 1L16.55 2.65L8.3 6H20C20.55 6 21.021 6.196 21.413 6.588C21.805 6.98 22.0007 7.45067 22 8V20C22 20.55 21.8043 21.021 21.413 21.413C21.0217 21.805 20.5507 22.0007 20 22H4ZM4 20H20V13H4V20ZM8 19C8.7 19 9.29167 18.7583 9.775 18.275C10.2583 17.7917 10.5 17.2 10.5 16.5C10.5 15.8 10.2583 15.2083 9.775 14.725C9.29167 14.2417 8.7 14 8 14C7.3 14 6.70833 14.2417 6.225 14.725C5.74167 15.2083 5.5 15.8 5.5 16.5C5.5 17.2 5.74167 17.7917 6.225 18.275C6.70833 18.7583 7.3 19 8 19ZM4 11H16V9H18V11H20V8H4V11Z" fill="white"/>
</svg>
