<svg width="16" height="16" viewBox="0 0 16 16" fill="none" xmlns="http://www.w3.org/2000/svg">
<path d="M8.00119 1.56213C8.23808 1.79892 8.89008 2.03614 8.89008 2.03614C8.89008 2.03614 8.7123 3.33911 8.00119 3.33911C7.29008 3.33911 7.1123 2.03614 7.1123 2.03614C7.1123 2.03614 7.7643 1.79892 8.00119 1.56213Z" fill="white"/>
<path fill-rule="evenodd" clip-rule="evenodd" d="M7.9179 0.0151044L7.91434 0.0159929L7.90412 0.0177697L7.86723 0.0248777L7.72945 0.0524207C7.61123 0.0764098 7.44279 0.111949 7.24145 0.157706C6.83923 0.24922 6.29923 0.382938 5.75701 0.550417C5.22012 0.71612 4.6579 0.922249 4.2219 1.16347C4.00501 1.28342 3.79701 1.42424 3.63834 1.58995C3.48056 1.75387 3.33301 1.98355 3.33301 2.27186C3.33301 3.04706 3.55079 3.61481 3.78101 3.99552C3.89434 4.18299 4.00945 4.32293 4.10012 4.41889C4.10397 4.47012 4.11182 4.52698 4.12367 4.58947C4.16856 4.82315 4.28101 5.12079 4.53879 5.40999C4.41604 5.93165 4.4129 6.4743 4.52961 6.99734C4.64632 7.52038 4.87986 8.01026 5.21275 8.43034C5.54564 8.85042 5.96926 9.18981 6.45191 9.42312C6.93457 9.65643 7.46376 9.77762 7.9999 9.77762C8.53603 9.77762 9.06522 9.65643 9.54788 9.42312C10.0305 9.18981 10.4542 8.85042 10.787 8.43034C11.1199 8.01026 11.3535 7.52038 11.4702 6.99734C11.5869 6.4743 11.5838 5.93165 11.461 5.40999C11.7183 5.12079 11.8308 4.82359 11.8757 4.58947C11.8875 4.52728 11.8954 4.47042 11.8992 4.41889C12.0204 4.28953 12.1274 4.1476 12.2183 3.99552C12.449 3.61481 12.6663 3.04706 12.6663 2.27186C12.6663 1.98355 12.5188 1.75387 12.361 1.58995C12.2023 1.42424 11.9943 1.28342 11.7775 1.16347C11.3415 0.922249 10.7792 0.71612 10.2419 0.550417C9.75221 0.401383 9.25721 0.270391 8.7579 0.157706C8.54994 0.110341 8.34133 0.0659128 8.13212 0.0244335L8.09523 0.0177697L8.08501 0.0159929L8.08145 0.0151044L7.99967 0L7.9179 0.0151044ZM7.99967 5.56059C8.98056 5.56059 9.63923 5.43354 10.0797 5.26828C10.4526 5.12834 10.6699 4.96131 10.7952 4.82048C10.8406 4.76925 10.8773 4.71979 10.9055 4.6721H5.0939C5.12204 4.72008 5.15864 4.76954 5.20367 4.82048C5.3299 4.96131 5.54679 5.12834 5.91923 5.26828C6.36012 5.43354 7.01879 5.56059 7.99967 5.56059ZM11.2761 3.78362H4.72323C4.65502 3.70685 4.59417 3.62385 4.54145 3.53573C4.38901 3.28385 4.22367 2.87647 4.2219 2.28119C4.23709 2.25289 4.25658 2.22711 4.27967 2.20478C4.35167 2.1297 4.47345 2.03952 4.65256 1.9409C5.00812 1.7441 5.50145 1.55929 6.01967 1.39892C6.48782 1.25679 6.96103 1.13187 7.43834 1.02442C7.62492 0.981979 7.81204 0.941994 7.99967 0.904479L8.09212 0.922693C8.20501 0.945794 8.36679 0.980444 8.56101 1.02442C8.95034 1.11283 9.46634 1.24077 9.97967 1.39937C10.4979 1.55929 10.9912 1.7441 11.3468 1.9409C11.5259 2.03952 11.6477 2.1297 11.7201 2.20478C11.7601 2.24698 11.7735 2.27186 11.7775 2.28119C11.7757 2.87647 11.6103 3.28385 11.4575 3.53573C11.4049 3.62384 11.3442 3.70683 11.2761 3.78362ZM5.33301 6.22696C5.33301 6.14699 5.33642 6.06792 5.34323 5.98973C5.9379 6.26827 6.78945 6.44908 7.99967 6.44908C9.0419 6.44908 9.81701 6.3158 10.3917 6.10035C10.485 6.0657 10.5732 6.02867 10.6561 5.98929C10.6629 6.06777 10.6663 6.14699 10.6663 6.22696C10.6663 6.93388 10.3854 7.61185 9.88529 8.11172C9.3852 8.61159 8.70692 8.89241 7.99967 8.89241C7.29243 8.89241 6.61415 8.61159 6.11406 8.11172C5.61396 7.61185 5.33301 6.93388 5.33301 6.22696Z" fill="white"/>
<path d="M2.66797 12.8903H5.77908V13.4438C5.77904 13.5403 5.74757 13.6342 5.68944 13.7112C5.6313 13.7882 5.54966 13.8442 5.45686 13.8707L4.34575 14.1884C4.26587 14.2112 4.18118 14.2112 4.1013 14.1884L2.99019 13.8707C2.89739 13.8442 2.81575 13.7882 2.75761 13.7112C2.69948 13.6342 2.66801 13.5403 2.66797 13.4438V12.8903ZM12.2969 12.0573C12.2928 12.041 12.2834 12.0264 12.2701 12.016C12.2568 12.0056 12.2404 12 12.2235 12C12.2067 12 12.1903 12.0056 12.177 12.016C12.1637 12.0264 12.1543 12.041 12.1502 12.0573L11.9409 12.7326C11.9363 12.7486 11.9267 12.7626 11.9135 12.7727C11.9002 12.7828 11.8841 12.7883 11.8675 12.7886H11.1893C11.1151 12.7886 11.084 12.8885 11.1444 12.9343L11.6929 13.3519C11.7195 13.3723 11.7311 13.4087 11.7209 13.4416L11.5115 14.1169C11.4884 14.1915 11.5693 14.2532 11.6297 14.207L12.1782 13.7894C12.1913 13.7796 12.2072 13.7743 12.2235 13.7743C12.2399 13.7743 12.2558 13.7796 12.2689 13.7894L12.8173 14.207C12.8777 14.2532 12.9586 14.1915 12.936 14.1173L12.7262 13.442C12.7213 13.4259 12.7214 13.4087 12.7264 13.3927C12.7314 13.3766 12.7411 13.3624 12.7542 13.3519L13.3026 12.9343C13.3631 12.8885 13.332 12.7886 13.2577 12.7886H12.5791C12.5625 12.7884 12.5465 12.7829 12.5333 12.7729C12.5201 12.7629 12.5104 12.7489 12.5057 12.733L12.2969 12.0573Z" fill="white"/>
<path fill-rule="evenodd" clip-rule="evenodd" d="M4.83511 9.78064C4.83511 9.78064 0 11.288 0 13.0978V16H16V13.0978C16 11.288 11.1649 9.78064 11.1649 9.78064L8.28622 12.2049C8.2061 12.2723 8.10473 12.3093 8 12.3093C7.89527 12.3093 7.7939 12.2723 7.71378 12.2049L4.83511 9.78064ZM11.3542 10.7833L8.85911 12.8846C8.61868 13.087 8.3144 13.1981 8 13.1981C7.6856 13.1981 7.38132 13.087 7.14089 12.8846L4.64578 10.7833C4.56815 10.8108 4.48326 10.8419 4.39111 10.8766C3.95556 11.0396 3.38222 11.272 2.81422 11.5554C2.23822 11.8428 1.71111 12.1613 1.34044 12.4852C0.94 12.8348 0.888889 13.0427 0.888889 13.0978V15.1116H15.1111V13.0978C15.1111 13.0427 15.06 12.8348 14.6596 12.4847C14.2889 12.1613 13.7618 11.8428 13.1853 11.5554C12.5907 11.2623 11.9792 11.0045 11.3542 10.7833Z" fill="white"/>
</svg>
