<svg width="18" height="17" viewBox="0 0 18 17" fill="none" xmlns="http://www.w3.org/2000/svg">
<path d="M8.57044 10.018L12.4964 11.0649C13.2576 11.2679 13.7873 11.9573 13.7873 12.7452V16H0.571289V12.7452C0.571289 11.9573 1.10094 11.2679 1.86218 11.0649L5.78813 10.018" stroke="white" stroke-width="1.14296" stroke-miterlimit="10" stroke-linecap="round" stroke-linejoin="round"/>
<path d="M11.3525 16V10.76" stroke="white" stroke-width="1.14296" stroke-miterlimit="10" stroke-linecap="round" stroke-linejoin="round"/>
<path d="M5.78809 8.99309V10.3657C5.78809 11.134 6.41091 11.7568 7.17924 11.7568C7.94758 11.7568 8.5704 11.134 8.5704 10.3657V8.99309" stroke="white" stroke-width="1.14296" stroke-miterlimit="10" stroke-linecap="round" stroke-linejoin="round"/>
<path d="M4.0498 4.19841V6.19241C4.0498 7.92113 5.45119 9.32251 7.17991 9.32251C8.90863 9.32251 10.31 7.92113 10.31 6.19241V4.19841H4.0498Z" stroke="white" stroke-width="1.14296" stroke-miterlimit="10" stroke-linecap="round" stroke-linejoin="round"/>
<path d="M3.00586 10.76V16" stroke="white" stroke-width="1.14296" stroke-miterlimit="10" stroke-linecap="round" stroke-linejoin="round"/>
<path d="M10.31 4.19836H4.0498V2.45942C4.0498 1.49903 4.82837 0.720471 5.78875 0.720471H8.57107C9.53145 0.720471 10.31 1.49903 10.31 2.45942V4.19836Z" stroke="white" stroke-width="1.14296" stroke-miterlimit="10" stroke-linecap="round" stroke-linejoin="round"/>
<path d="M15.1245 7.45448C15.0847 7.39729 15.0602 7.32877 15.0537 7.25677C15.0472 7.18477 15.059 7.11219 15.0878 7.04731C15.1629 6.88444 15.1923 6.69823 15.1731 6.51489C15.1574 6.38405 15.1187 6.25796 15.0592 6.14391C15.0007 6.0311 14.9221 5.93288 14.8283 5.85532C14.5093 5.58772 14.2854 5.20274 14.1964 4.76857C13.4675 5.83484 13.747 6.44012 14.0961 6.97349C14.1369 7.03608 14.1583 7.11176 14.1573 7.18915C14.1562 7.26653 14.1326 7.34143 14.0901 7.40257C14.0466 7.46438 13.9883 7.51112 13.922 7.53734C13.8564 7.56299 13.7855 7.56679 13.718 7.5483C13.2465 7.41972 12.8027 7.17494 12.5019 6.78491C12.3315 6.56816 12.2002 6.31671 12.1153 6.04438C12.0294 5.76969 11.9913 5.47923 12.0031 5.1886C12.0031 5.1886 11.9463 4.01566 13.2136 2.86652C13.2136 2.86652 14.7114 1.44832 14.1917 0.399674C14.1725 0.348102 14.1668 0.291509 14.1752 0.236465C14.1837 0.181421 14.2059 0.130183 14.2394 0.088699C14.272 0.0481119 14.315 0.0196439 14.3625 0.00712766C14.4101 -0.00538856 14.4599 -0.00135201 14.5053 0.0186939L14.5676 0.046315C15.1317 0.4443 15.5727 1.02616 15.8307 1.7131C16.0782 2.38601 16.0764 3.17036 15.9092 3.86898C16.0479 3.72992 16.1635 3.56372 16.251 3.37704L16.2633 3.34656C16.3478 3.1194 16.6137 3.19179 16.7135 3.34037C16.7502 3.40561 17.6916 4.93239 17.1859 6.22058C17.0013 6.61106 16.7312 6.94312 16.4007 7.18589C16.1238 7.39139 15.8141 7.53575 15.4884 7.61116C15.4212 7.62708 15.3512 7.62079 15.287 7.59306C15.2223 7.5649 15.166 7.51706 15.1245 7.45496V7.45448ZM14.3709 3.75849C14.4107 3.7351 14.4569 3.72926 14.5004 3.74214C14.5439 3.75502 14.5814 3.78568 14.6056 3.82802C14.6226 3.8566 14.6333 3.88803 14.6376 3.92232L14.6568 4.08852C14.6653 4.33187 14.6627 4.58617 14.7477 4.82C14.8356 5.06002 14.9721 5.27241 15.1454 5.43814C15.3685 5.60204 15.5413 5.8384 15.6403 6.11533C15.7342 6.38393 15.747 6.68204 15.6762 6.95968C15.893 6.88365 16.0945 6.7612 16.2693 6.59918L16.3133 6.55918C16.4566 6.42726 16.5748 6.26249 16.6602 6.07485C16.746 5.8877 16.7976 5.68197 16.8112 5.47053C16.839 4.98239 16.6901 4.49236 16.4584 4.05518C16.3525 4.22662 16.2066 4.35949 16.038 4.43807C15.9326 4.48807 15.8208 4.51903 15.7069 4.52855C15.6417 4.53302 15.5767 4.51649 15.5196 4.48093C15.4617 4.44426 15.4142 4.39013 15.3826 4.32473C15.3566 4.27195 15.3417 4.21324 15.3391 4.15307C15.3365 4.0929 15.3463 4.03287 15.3677 3.97756C15.5435 3.51467 15.5981 3.00129 15.5234 2.50269C15.4351 1.93219 15.1903 1.40636 14.8228 0.997814C14.7562 2.04789 13.7914 3.02558 13.5934 3.23607C13.5626 3.26818 13.5307 3.29899 13.4978 3.32846C12.4626 4.26425 12.5335 5.11669 12.5335 5.15431C12.5134 5.4929 12.5814 5.83074 12.7293 6.12724C12.8851 6.43441 13.1091 6.68776 13.3779 6.86063C13.0677 6.09962 13.0677 5.18622 14.2126 3.8766L14.3713 3.75754L14.3709 3.75849Z" fill="white"/>
</svg>
