<svg width="24" height="24" viewBox="0 0 24 24" fill="none" xmlns="http://www.w3.org/2000/svg">
<path d="M17.3747 10.7065L20.1066 8.13589L20.1225 8.11995C20.6852 7.55728 21.0013 6.79413 21.0013 5.99839C21.0013 5.20265 20.6852 4.4395 20.1225 3.87683C19.5598 3.31415 18.7967 2.99805 18.0009 2.99805C17.2052 2.99805 16.4421 3.31415 15.8794 3.87683C15.8794 3.88245 15.8691 3.88714 15.8634 3.89276L13.2928 6.62464L5.51157 3.79339C5.37746 3.74461 5.23221 3.73511 5.09289 3.76599C4.95356 3.79688 4.82594 3.86688 4.72501 3.96776L2.47501 6.21776C2.3966 6.29623 2.33658 6.39111 2.29926 6.49557C2.26195 6.60003 2.24826 6.71147 2.2592 6.82185C2.27014 6.93223 2.30543 7.03882 2.36253 7.13392C2.41962 7.22902 2.4971 7.31028 2.58938 7.37183L8.57907 11.3646L7.18969 12.7493H5.25001C5.05136 12.7494 4.86086 12.8283 4.72032 12.9687L2.47032 15.2187C2.38257 15.3062 2.31788 15.4142 2.28204 15.5328C2.2462 15.6514 2.24032 15.7771 2.26493 15.8986C2.28955 16.0201 2.34388 16.1336 2.42307 16.2289C2.50227 16.3242 2.60386 16.3985 2.71876 16.445L6.17063 17.8259L7.54876 21.2712L7.55438 21.2862C7.60206 21.4016 7.67779 21.5033 7.77471 21.582C7.87164 21.6607 7.98668 21.714 8.10941 21.737C8.23214 21.76 8.35867 21.752 8.47752 21.7137C8.59637 21.6754 8.70378 21.6081 8.79001 21.5178L11.0278 19.279C11.0978 19.2097 11.1535 19.1272 11.1916 19.0363C11.2298 18.9454 11.2496 18.8479 11.25 18.7493V16.8096L12.6338 15.4259L16.6266 21.4156C16.6881 21.5079 16.7694 21.5853 16.8645 21.6424C16.9596 21.6995 17.0662 21.7348 17.1765 21.7458C17.2869 21.7567 17.3984 21.743 17.5028 21.7057C17.6073 21.6684 17.7022 21.6084 17.7806 21.53L20.0306 19.28C20.1315 19.179 20.2015 19.0514 20.2324 18.9121C20.2633 18.7727 20.2538 18.6275 20.205 18.4934L17.3747 10.7065ZM17.3681 19.8218L13.3753 13.8331C13.3141 13.7401 13.233 13.6619 13.1378 13.6042C13.0426 13.5464 12.9358 13.5106 12.825 13.4993H12.7509C12.6524 13.4994 12.5547 13.5189 12.4637 13.5567C12.3726 13.5945 12.2899 13.6498 12.2203 13.7196L9.97032 15.9696C9.82959 16.11 9.75035 16.3005 9.75001 16.4993V18.439L8.52469 19.6643L7.44657 16.9681C7.40885 16.8745 7.35262 16.7894 7.28126 16.7181C7.2099 16.6467 7.12486 16.5905 7.03126 16.5528L4.33688 15.4746L5.56126 14.2493H7.50001C7.59853 14.2494 7.6961 14.2301 7.78714 14.1924C7.87819 14.1548 7.96093 14.0996 8.03063 14.03L10.2806 11.78C10.3592 11.7015 10.4194 11.6065 10.4568 11.502C10.4942 11.3974 10.5079 11.2859 10.497 11.1754C10.4861 11.0649 10.4507 10.9582 10.3935 10.863C10.3363 10.7678 10.2587 10.6865 10.1663 10.625L4.17751 6.6312L5.44313 5.36651L13.245 8.20339C13.3825 8.2539 13.5317 8.26306 13.6743 8.22974C13.8169 8.19642 13.9467 8.12208 14.0475 8.01589L16.9481 4.93058C17.2309 4.65612 17.6102 4.50393 18.0042 4.5069C18.3982 4.50986 18.7753 4.66775 19.0538 4.94643C19.3324 5.22511 19.4901 5.60221 19.4929 5.99623C19.4957 6.39024 19.3433 6.76954 19.0688 7.05214L15.9872 9.95183C15.881 10.0527 15.8067 10.1824 15.7733 10.325C15.74 10.4676 15.7492 10.6169 15.7997 10.7543L18.6366 18.5562L17.3681 19.8218Z" fill="white"/>
</svg>
