<svg width="24" height="24" viewBox="0 0 24 24" fill="none" xmlns="http://www.w3.org/2000/svg">
<path d="M9.45566 4.82803C9.46035 4.68131 9.45566 4.536 9.44629 4.39538L11.9916 7.48585C12.1838 7.73428 12.301 7.98741 12.3572 8.27335C12.4182 8.61085 12.3807 8.96241 12.2494 9.28116C12.1604 9.49678 12.0244 9.69366 11.8604 9.86241C11.3119 10.2937 10.89 10.453 10.2666 10.3452L6.34785 9.54366L6.37129 9.5296C6.96191 9.25772 7.4916 8.88272 7.9416 8.41397C8.39629 7.94053 8.7666 7.3921 9.02441 6.78741C9.2916 6.16866 9.4416 5.50303 9.45566 4.82803ZM11.9072 6.01397L12.6619 6.93272C12.9432 7.27491 13.1307 7.67803 13.2104 8.11397C13.4307 9.3421 12.7744 10.5608 11.6213 11.0483C11.3682 11.1515 11.1057 11.2171 10.8338 11.2405C10.5807 11.2593 10.3322 11.2546 10.0885 11.1983L7.47754 10.6593L7.4166 11.7562L13.4213 11.7374L13.4822 5.89678L11.9072 6.01397ZM15.5916 8.22647C15.3619 8.24053 15.1369 8.47022 15.0338 8.63428C14.9307 8.83116 14.9025 9.07491 15.0432 9.25303C15.1932 9.41241 15.4088 9.42178 15.5963 9.31866C15.7416 9.23897 15.8447 9.11241 15.915 8.98116C16.0744 8.64366 15.9385 8.21241 15.5916 8.22647ZM16.1354 10.1671C16.1072 10.1483 16.0791 10.1343 16.051 10.1249C15.7604 10.0265 15.4463 10.289 15.3385 10.5046C15.2541 10.7062 15.2494 10.9499 15.4041 11.1093C15.4416 11.1468 15.4838 11.1749 15.5307 11.1983C15.7463 11.3015 16.0088 11.1843 16.1494 11.0296C16.2432 10.903 16.3135 10.7483 16.3229 10.6124C16.3322 10.439 16.2432 10.2515 16.1354 10.1671ZM17.0775 10.0733C17.326 9.89991 17.3775 9.50147 17.2463 9.30928C17.0354 9.13585 16.7775 8.97647 16.5807 8.83585V8.84053C16.5291 9.1171 16.4119 9.36553 16.2385 9.55772C16.5432 9.69835 16.8244 9.90928 17.0775 10.0733ZM16.1869 11.7937C15.9619 11.8124 15.765 12.014 15.6854 12.1874C15.6104 12.3937 15.6432 12.6327 15.8072 12.7827C16.0369 12.9843 16.3697 12.9187 16.5572 12.6983C16.6041 12.6421 16.6416 12.5812 16.665 12.5108C16.7682 12.1733 16.5994 11.7655 16.1869 11.7937ZM17.626 11.8499C17.6354 11.8358 17.6494 11.8265 17.6588 11.8124C17.7994 11.6437 17.8135 11.428 17.7291 11.2405C17.6916 11.1749 17.64 11.128 17.5838 11.0858C17.3588 10.9499 17.1385 10.814 16.9229 10.678C16.8947 10.9124 16.8244 11.1233 16.6979 11.3015C17.0072 11.489 17.3541 11.6952 17.626 11.8499ZM15.2588 11.7327C15.1557 11.6812 15.0572 11.6108 14.9775 11.5265C14.8697 11.414 14.79 11.2827 14.7385 11.1374C14.6869 10.9921 14.6682 10.8374 14.6822 10.6827C14.6963 10.5327 14.7338 10.3921 14.7947 10.2562C14.8463 10.1437 14.9166 10.0358 15.001 9.9421L14.8697 9.87178C14.7619 9.81553 14.6682 9.73585 14.5885 9.6421C14.49 9.52022 14.4197 9.3796 14.3822 9.22491C14.3494 9.07491 14.3447 8.92022 14.3729 8.77022C14.3963 8.62491 14.4432 8.48897 14.5135 8.35772C14.5791 8.23585 14.6588 8.12335 14.7572 8.02491C14.8557 7.92647 14.9682 7.8421 15.09 7.77647C15.2213 7.70616 15.3619 7.65928 15.5119 7.64053H15.54C15.1088 6.98897 14.776 6.47803 14.3541 5.83116L14.2885 11.7374C14.5791 11.7562 14.8369 11.8968 15.1182 12.0093C15.1557 11.9108 15.2072 11.8077 15.2588 11.7327ZM16.7213 13.5374C16.44 13.4483 16.1213 13.6827 16.0463 13.9077C15.9994 14.0483 16.0135 14.203 16.0744 14.3296C16.2104 14.6718 16.7307 14.714 16.965 14.4093C17.0072 14.353 17.0541 14.2921 17.0635 14.2218C17.1104 13.8983 17.0166 13.6452 16.7213 13.5374ZM18.0385 13.5608C18.301 13.3968 18.2775 12.9983 18.1041 12.8202C18.076 12.7968 18.0478 12.7733 18.015 12.7546L17.2979 12.3468C17.2885 12.5952 17.2088 12.8343 17.0588 13.0312C17.401 13.2093 17.7479 13.4062 18.0385 13.5608ZM17.5932 15.2015C17.4525 15.0983 17.2791 15.0187 17.1291 15.0233C16.9885 15.0421 16.8619 15.1124 16.7729 15.2249C16.6838 15.3374 16.6416 15.4827 16.6604 15.6233C16.6791 15.7312 16.7119 15.8015 16.7729 15.8858C16.9932 16.1577 17.4104 16.1905 17.6307 15.8999C17.7947 15.6796 17.7525 15.3983 17.5932 15.2015ZM18.4697 15.2765L18.4791 15.2671C18.5822 15.2108 18.6619 15.1124 18.69 14.9952C18.751 14.7655 18.6338 14.5687 18.4463 14.4515C18.1885 14.3155 17.9354 14.1843 17.6822 14.0483C17.6822 14.3062 17.5979 14.5546 17.4432 14.7608C17.8182 14.9249 18.1229 15.0937 18.4697 15.2765ZM17.9869 16.6171C17.8463 16.5796 17.6916 16.589 17.5697 16.664C17.4525 16.7296 17.3635 16.8468 17.3307 16.978C17.3119 17.1655 17.34 17.3296 17.4479 17.4562C17.6869 17.803 18.2916 17.7327 18.39 17.2827C18.4557 17.0108 18.2729 16.6827 17.9869 16.6171ZM19.3463 16.6124C19.3697 16.5702 19.3885 16.528 19.3979 16.4812C19.4354 16.2562 19.3322 16.0405 19.1307 15.9421L18.3338 15.539C18.3432 15.7218 18.3057 15.8999 18.226 16.064C18.6057 16.228 19.0229 16.453 19.3463 16.6124ZM18.8541 18.164C18.7041 18.5015 18.7041 18.5015 18.8541 18.164C18.6854 18.0983 18.465 18.1218 18.3338 18.1968C18.0807 18.3655 18.0525 18.7733 18.2588 18.989C18.4885 19.2655 19.1213 19.2327 19.201 18.778C19.2432 18.5296 19.0979 18.2671 18.8541 18.164ZM20.101 18.0515V18.0421C20.1291 17.8921 20.0822 17.7655 20.0025 17.6483C19.951 17.5874 19.8853 17.5452 19.8197 17.5077C19.5478 17.3718 19.276 17.2405 19.0041 17.1093C19.0135 17.264 18.99 17.414 18.9338 17.5593C19.3088 17.6905 19.7119 17.8827 20.101 18.0515ZM19.8479 19.6358C19.6557 19.5421 19.3932 19.589 19.2525 19.6968C19.1729 19.7624 19.1166 19.8562 19.0932 19.9593C19.065 20.1374 19.1166 20.3015 19.2244 20.4374C19.2947 20.5171 19.3838 20.578 19.4822 20.6108C19.6369 20.6671 19.8057 20.6483 19.9416 20.5733C20.0588 20.503 20.1432 20.3905 20.1713 20.2546C20.2229 19.9968 20.0447 19.7483 19.8479 19.6358ZM20.9447 19.4999C20.9494 19.4858 20.9494 19.4718 20.9541 19.4577C20.9822 19.214 20.8416 19.0405 20.6447 18.9327L19.7963 18.5718C19.815 18.7124 19.801 18.853 19.7635 18.989C20.19 19.139 20.6025 19.3312 20.9447 19.4999ZM21.3385 22.4155C21.6244 22.528 21.9057 22.6405 22.1916 22.753C22.4729 22.814 22.7353 22.7249 22.801 22.4624C22.815 22.214 22.7119 22.0312 22.5291 21.9233C22.2572 21.7921 21.9854 21.6608 21.7088 21.5249C21.7275 21.8577 21.5541 22.228 21.3385 22.4155ZM21.0619 21.3468C20.8791 21.0515 20.5557 20.9249 20.2604 21.0843C20.1432 21.1499 20.0588 21.2671 20.0307 21.3983C19.9838 21.6187 20.0822 21.8343 20.2557 21.9655C20.4385 22.0968 20.6682 22.1249 20.8697 22.0124C21.1182 21.8577 21.1604 21.5858 21.0619 21.3468ZM21.901 20.953C21.915 20.7421 21.7697 20.5733 21.6057 20.4796L20.776 20.0812C20.7807 20.2077 20.7713 20.3296 20.7432 20.4374C21.1557 20.6108 21.5166 20.7655 21.901 20.953ZM13.3463 13.6499C13.126 13.6546 12.5307 13.8233 12.4932 14.0952L16.3416 21.8343C16.6275 21.6937 16.9604 21.5437 17.1994 21.389C16.4166 19.828 14.1291 15.2108 13.3463 13.6499ZM10.4869 13.6171L5.91191 21.2624C6.1791 21.4218 6.50723 21.6046 6.75566 21.7452C7.66973 20.1937 10.4072 15.6421 11.326 14.0952C11.2838 13.9312 10.7494 13.5046 10.4869 13.6171ZM11.8229 14.9577L12.8869 18.628C13.1541 18.5624 13.426 18.4733 13.665 18.4077L11.8932 14.8405L11.8229 14.9577ZM10.4494 12.7358C10.59 12.7218 10.7494 12.7452 10.8666 12.7827C11.1994 12.8905 11.5182 13.0546 11.776 13.2749C11.8135 13.3077 11.851 13.3405 11.8885 13.378H11.94C12.2822 13.1015 12.826 12.8155 13.1963 12.7733C13.4635 12.764 13.7494 12.8577 13.9182 13.003C14.0447 13.1015 14.1057 13.2421 14.1807 13.3874C14.8697 13.3874 15.5588 13.3968 16.2479 13.4015C15.5916 13.1343 14.9354 12.8671 14.2744 12.6046C11.9682 12.6046 9.6666 12.614 7.36035 12.6233L9.6291 13.0499L9.79316 13.078C9.95254 12.8765 10.1916 12.7499 10.4494 12.7358ZM4.21785 2.63288C4.11988 2.57663 4.00691 2.55225 3.89441 2.56256C3.85129 2.56725 3.8091 2.57663 3.76785 2.59069C3.60449 2.64276 3.46706 2.75505 3.38348 2.90475C3.29535 3.05475 3.26863 3.23241 3.30848 3.40163C3.37832 3.72413 3.71301 3.91397 4.02566 3.80944C4.36504 3.69788 4.56379 3.34678 4.48504 2.9985C4.45129 2.84475 4.35426 2.7121 4.21785 2.63288ZM8.58848 4.8046C8.57441 5.3671 8.45254 5.92491 8.22754 6.44053C8.00723 6.94678 7.69785 7.41085 7.31348 7.80928C6.94164 8.19942 6.49953 8.51589 6.01035 8.7421C5.62129 8.92022 5.19941 9.03272 4.77285 9.07022C4.68145 9.0796 4.58816 9.08428 4.49441 9.08428C4.00177 9.08879 3.51452 8.9814 3.06941 8.77022C2.65411 8.57311 2.28754 8.28658 1.99598 7.93116C1.70535 7.57491 1.48832 7.1671 1.35848 6.72647C1.2197 6.25382 1.17042 5.75941 1.21316 5.26866C1.25395 4.76241 1.38098 4.27116 1.58816 3.80944C1.79008 3.36131 2.06226 2.9483 2.39441 2.586C2.722 2.22792 3.10696 1.92692 3.53348 1.69538C3.96249 1.46017 4.43247 1.30902 4.91816 1.25006L5.02129 1.24069C5.46191 1.20131 5.90723 1.25053 6.3291 1.386C6.76973 1.52803 7.16816 1.76475 7.50566 2.07975C7.85723 2.40788 8.1291 2.80725 8.31191 3.25163C8.50879 3.74475 8.60723 4.27397 8.58848 4.8046ZM5.2041 2.62819L4.74473 2.22038C4.72598 2.20491 4.7166 2.19413 4.69785 2.17819C4.38566 1.92038 3.96145 1.84069 3.57566 1.96725C3.25353 2.06768 2.9819 2.28733 2.81629 2.58131C2.6469 2.87482 2.59657 3.22211 2.67566 3.55163C2.7204 3.746 2.81281 3.92619 2.94456 4.07595C3.07631 4.2257 3.24326 4.34031 3.43035 4.40944L4.09598 4.66725C4.10676 4.67241 4.11754 4.6771 4.12879 4.68132C4.27504 4.7296 4.42973 4.74835 4.58348 4.73428C4.96973 4.69678 5.31191 4.47272 5.49941 4.13288C5.79473 3.61725 5.66348 2.961 5.2041 2.62819Z" fill="white"/>
</svg>
