<svg width="18" height="15" viewBox="0 0 18 15" fill="none" xmlns="http://www.w3.org/2000/svg">
<path d="M6.83174 10.5576C6.83288 11.3728 6.50243 12.1551 5.91304 12.7324C5.32366 13.3098 4.5236 13.6349 3.68882 13.6362C2.85404 13.6349 2.05398 13.3098 1.4646 12.7324C0.875209 12.1551 0.544754 11.3728 0.545901 10.5576C0.544754 9.74231 0.875209 8.96 1.4646 8.38267C2.05398 7.80533 2.85404 7.48025 3.68882 7.47891C4.5236 7.48025 5.32366 7.80533 5.91304 8.38267C6.50243 8.96 6.83288 9.74231 6.83174 10.5576ZM6.83174 10.5576V2.15779C6.83174 -0.379451 3.92233 0.433075 3.22525 2.15779C3.22525 2.15779 1.49206 7.47384 0.688604 9.63185M6.83174 6.65962C6.83174 6.65962 7.42071 7.2289 8.5459 7.2289C9.67109 7.2289 10.2601 6.65962 10.2601 6.65962M6.83174 9.73827C6.83174 9.73827 7.42071 10.3075 8.5459 10.3075C9.67109 10.3075 10.2601 9.73827 10.2601 9.73827M10.2601 10.5584V2.15779C10.2601 -0.379451 13.1695 0.433075 13.8665 2.15779C13.8665 2.15779 15.5997 7.47384 16.4032 9.63185M13.403 13.6362C14.2378 13.6349 15.0378 13.3098 15.6272 12.7324C16.2166 12.1551 16.547 11.3728 16.5459 10.5576C16.547 9.74231 16.2166 8.96 15.6272 8.38267C15.0378 7.80533 14.2378 7.48025 13.403 7.47891C12.5682 7.48025 11.7681 7.80533 11.1788 8.38267C10.5894 8.96 10.2589 9.74231 10.2601 10.5576C10.2589 11.3728 10.5894 12.1551 11.1788 12.7324C11.7681 13.3098 12.5682 13.6349 13.403 13.6362Z" stroke="white" stroke-width="1.09091" stroke-linecap="round" stroke-linejoin="round"/>
</svg>
