<svg width="24" height="24" viewBox="0 0 24 24" fill="none" xmlns="http://www.w3.org/2000/svg">
<path d="M19.9795 1.40625C19.3404 1.40719 18.1694 1.86736 17.7433 2.34375H3.19828C1.69828 2.34375 1.69828 5.34375 3.19828 5.34375H17.7436C18.1696 5.82 19.3405 6.28022 19.9796 6.28125C20.7822 6.28008 21.5235 5.66391 21.9249 4.96875H20.0733L19.0421 3.84375L20.0733 2.71875H21.9258C21.5243 2.02336 20.7825 1.40709 19.9795 1.40625ZM3.94828 3.09375C4.36252 3.09375 4.69828 3.42952 4.69828 3.84375C4.69828 4.25798 4.36252 4.59375 3.94828 4.59375C3.53405 4.59375 3.19828 4.25798 3.19828 3.84375C3.19828 3.42952 3.53409 3.09375 3.94828 3.09375ZM7.5 8.57812C7.125 8.57812 6.85172 8.76741 6.55472 8.99123C6.25772 9.21502 5.94628 9.50423 5.6153 9.81952C4.97067 10.4334 4.25109 11.1456 3.57117 11.611L5.69963 11.6642C6.22322 10.6823 6.55636 9.77109 7.5 9.42188H10.8281V11.7924L11.6719 11.8135V9.42188H12.75C13.2891 9.42188 14.2007 9.91331 15.1114 10.6419C15.6028 11.035 16.0988 11.4861 16.57 11.936L18.8955 11.9941L21.2266 9.27455L20.5859 8.72545L17.8092 11.9649C17.1552 11.3169 16.4052 10.5964 15.6386 9.98306C14.6742 9.21173 13.7109 8.57812 12.75 8.57812H7.5ZM2.24888 12.4221C2.01473 12.4224 1.73166 12.5524 1.51702 12.7671C1.30205 12.9819 1.17188 13.2656 1.17188 13.5C1.17188 14.1094 1.51294 15.0122 1.95155 15.7139C2.15569 16.0406 2.37919 16.3259 2.57873 16.5255C2.57869 16.5169 2.57812 16.5086 2.57812 16.5C2.57812 15.0293 3.77934 13.8281 5.25 13.8281C6.72066 13.8281 7.92188 15.0293 7.92188 16.5C7.92188 16.6111 7.91423 16.7205 7.90092 16.8281H16.8491C16.8354 16.7193 16.8284 16.6097 16.8281 16.5C16.8281 15.0293 18.0293 13.8281 19.5 13.8281C20.9707 13.8281 22.1719 15.0293 22.1719 16.5C22.1719 16.6111 22.1642 16.7205 22.1509 16.8281H22.5912L22.8272 14.7035C22.8222 14.1024 22.533 13.6729 22.1427 13.3606C21.7489 13.0456 21.2344 12.8906 21 12.8906H20.9947L2.24888 12.4221ZM5.25 14.6719C4.23534 14.6719 3.42188 15.4853 3.42188 16.5C3.42188 17.5147 4.23534 18.3281 5.25 18.3281C6.26461 18.3281 7.07812 17.5147 7.07812 16.5C7.07812 15.4853 6.26461 14.6719 5.25 14.6719ZM19.5 14.6719C18.4853 14.6719 17.6719 15.4853 17.6719 16.5C17.6719 17.5147 18.4853 18.3281 19.5 18.3281C20.5146 18.3281 21.3281 17.5147 21.3281 16.5C21.3281 15.4853 20.5146 14.6719 19.5 14.6719ZM9.42188 17.6719V18.3281H14.5781V17.6719H9.42188ZM11.6719 19.1719V21.3281H12.3281V19.1719H11.6719ZM10.0107 22.1719L9.68259 22.8281H14.3174L13.9892 22.1719H10.0107Z" fill="white"/>
</svg>
