<svg width="24" height="24" viewBox="0 0 24 24" fill="none" xmlns="http://www.w3.org/2000/svg">
<g clip-path="url(#clip0_888_3550)">
<path fill-rule="evenodd" clip-rule="evenodd" d="M17.6523 7.26487C18.1098 7.26487 18.5629 7.17476 18.9856 6.99967C19.4083 6.82458 19.7923 6.56795 20.1159 6.24443C20.4394 5.92092 20.696 5.53684 20.8711 5.11414C21.0462 4.69145 21.1363 4.2384 21.1363 3.78087C21.1363 3.32335 21.0462 2.8703 20.8711 2.44761C20.696 2.02491 20.4394 1.64083 20.1159 1.31731C19.7923 0.993796 19.4083 0.737166 18.9856 0.562079C18.5629 0.386991 18.1098 0.296875 17.6523 0.296875C16.7283 0.296875 15.8421 0.663938 15.1887 1.31731C14.5354 1.97069 14.1683 2.85686 14.1683 3.78087C14.1683 4.70489 14.5354 5.59106 15.1887 6.24443C15.8421 6.89781 16.7283 7.26487 17.6523 7.26487ZM21.7673 10.4469C22.8582 11.5381 23.4711 13.0179 23.4713 14.5609V16.0549C23.4713 16.3201 23.3659 16.5744 23.1784 16.762C22.9909 16.9495 22.7365 17.0549 22.4713 17.0549H20.9773L20.2563 22.8289C20.2261 23.0709 20.1084 23.2935 19.9256 23.4548C19.7427 23.6161 19.5072 23.7051 19.2633 23.7049H16.0413C15.7976 23.7048 15.5623 23.6158 15.3797 23.4544C15.197 23.2931 15.0795 23.0707 15.0493 22.8289L15.0173 22.5739V17.1749C15.0187 16.8291 14.9483 16.4867 14.8106 16.1695C14.6729 15.8522 14.4709 15.567 14.2173 15.3319L11.9793 13.2679C12.2105 12.2539 12.7092 11.3204 13.4236 10.5646C14.138 9.80874 15.0418 9.25816 16.0412 8.97015C17.0405 8.68213 18.0987 8.6672 19.1058 8.92692C20.1129 9.18663 21.0319 9.71149 21.7673 10.4469ZM13.5173 17.1709C13.5181 17.0322 13.4901 16.895 13.435 16.7677C13.3799 16.6405 13.2989 16.5261 13.1973 16.4319L7.7013 11.3619C7.51661 11.1915 7.27455 11.0969 7.0233 11.0969C6.77204 11.0969 6.52999 11.1915 6.3453 11.3619L0.850296 16.4319C0.748521 16.5263 0.667509 16.6408 0.612416 16.7682C0.557324 16.8956 0.529357 17.0331 0.530296 17.1719V22.7259C0.530296 22.9909 0.635516 23.2451 0.822836 23.4326C1.01016 23.6201 1.26425 23.7256 1.5293 23.7259H12.5193C12.7845 23.7259 13.0389 23.6205 13.2264 23.433C13.4139 23.2454 13.5193 22.9911 13.5193 22.7259V17.1709H13.5173ZM7.8403 15.0419H6.2053C6.07269 15.0419 5.94551 15.0946 5.85174 15.1883C5.75798 15.2821 5.7053 15.4093 5.7053 15.5419V17.2799H3.9683C3.83569 17.2799 3.70851 17.3326 3.61474 17.4263C3.52097 17.5201 3.4683 17.6473 3.4683 17.7799V19.4149C3.4683 19.5475 3.52097 19.6747 3.61474 19.7684C3.70851 19.8622 3.83569 19.9149 3.9683 19.9149H5.7053V21.6529C5.7053 21.7855 5.75798 21.9127 5.85174 22.0064C5.94551 22.1002 6.07269 22.1529 6.2053 22.1529H7.8403C7.97291 22.1529 8.10008 22.1002 8.19385 22.0064C8.28762 21.9127 8.3403 21.7855 8.3403 21.6529V19.9149H10.0793C10.2119 19.9149 10.3391 19.8622 10.4328 19.7684C10.5266 19.6747 10.5793 19.5475 10.5793 19.4149V17.7809C10.5793 17.6483 10.5266 17.5211 10.4328 17.4273C10.3391 17.3336 10.2119 17.2809 10.0793 17.2809H8.3403V15.5429C8.3403 15.4103 8.28762 15.2831 8.19385 15.1893C8.10008 15.0956 7.97291 15.0419 7.8403 15.0419Z" fill="white"/>
</g>
<defs>
<clipPath id="clip0_888_3550">
<rect width="24" height="24" fill="white"/>
</clipPath>
</defs>
</svg>
