<svg width="24" height="24" viewBox="0 0 24 24" fill="none" xmlns="http://www.w3.org/2000/svg">
<path d="M12 18.8571C12.9005 18.8571 13.7922 18.6798 14.6241 18.3352C15.4561 17.9906 16.212 17.4855 16.8487 16.8487C17.4855 16.212 17.9906 15.4561 18.3352 14.6241C18.6798 13.7922 18.8571 12.9005 18.8571 12C18.8571 11.0995 18.6798 10.2078 18.3352 9.37589C17.9906 8.54394 17.4855 7.78801 16.8487 7.15127C16.212 6.51452 15.4561 6.00943 14.6241 5.66483C13.7922 5.32022 12.9005 5.14286 12 5.14286C10.1814 5.14286 8.43723 5.8653 7.15127 7.15127C5.8653 8.43723 5.14286 10.1814 5.14286 12C5.14286 13.8186 5.8653 15.5628 7.15127 16.8487C8.43723 18.1347 10.1814 18.8571 12 18.8571ZM12 20C9.87827 20 7.84344 19.1571 6.34315 17.6569C4.84285 16.1566 4 14.1217 4 12C4 9.87827 4.84285 7.84344 6.34315 6.34315C7.84344 4.84285 9.87827 4 12 4C14.1217 4 16.1566 4.84285 17.6569 6.34315C19.1571 7.84344 20 9.87827 20 12C20 14.1217 19.1571 16.1566 17.6569 17.6569C16.1566 19.1571 14.1217 20 12 20Z" fill="white"/>
<path d="M12 4.57143C12.1516 4.57143 12.2969 4.63163 12.4041 4.7388C12.5112 4.84596 12.5714 4.9913 12.5714 5.14286V8.57143C12.5714 8.72298 12.5112 8.86833 12.4041 8.97549C12.2969 9.08265 12.1516 9.14286 12 9.14286C11.8484 9.14286 11.7031 9.08265 11.5959 8.97549C11.4888 8.86833 11.4286 8.72298 11.4286 8.57143V5.14286C11.4286 4.9913 11.4888 4.84596 11.5959 4.7388C11.7031 4.63163 11.8484 4.57143 12 4.57143ZM12 14.8571C12.1516 14.8571 12.2969 14.9173 12.4041 15.0245C12.5112 15.1317 12.5714 15.277 12.5714 15.4286V18.8571C12.5714 19.0087 12.5112 19.154 12.4041 19.2612C12.2969 19.3684 12.1516 19.4286 12 19.4286C11.8484 19.4286 11.7031 19.3684 11.5959 19.2612C11.4888 19.154 11.4286 19.0087 11.4286 18.8571V15.4286C11.4286 15.277 11.4888 15.1317 11.5959 15.0245C11.7031 14.9173 11.8484 14.8571 12 14.8571ZM4.57143 12C4.57143 11.8484 4.63163 11.7031 4.7388 11.5959C4.84596 11.4888 4.9913 11.4286 5.14286 11.4286H8.57143C8.72298 11.4286 8.86833 11.4888 8.97549 11.5959C9.08265 11.7031 9.14286 11.8484 9.14286 12C9.14286 12.1516 9.08265 12.2969 8.97549 12.4041C8.86833 12.5112 8.72298 12.5714 8.57143 12.5714H5.14286C4.9913 12.5714 4.84596 12.5112 4.7388 12.4041C4.63163 12.2969 4.57143 12.1516 4.57143 12ZM14.8571 12C14.8571 11.8484 14.9173 11.7031 15.0245 11.5959C15.1317 11.4888 15.277 11.4286 15.4286 11.4286H18.8571C19.0087 11.4286 19.154 11.4888 19.2612 11.5959C19.3684 11.7031 19.4286 11.8484 19.4286 12C19.4286 12.1516 19.3684 12.2969 19.2612 12.4041C19.154 12.5112 19.0087 12.5714 18.8571 12.5714H15.4286C15.277 12.5714 15.1317 12.5112 15.0245 12.4041C14.9173 12.2969 14.8571 12.1516 14.8571 12Z" fill="white"/>
</svg>
