<svg width="26" height="26" viewBox="0 0 26 26" fill="none" xmlns="http://www.w3.org/2000/svg">
<g clip-path="url(#clip0_888_3402)">
<path d="M6.00029 0C5.20464 0 4.44158 0.31607 3.87897 0.87868C3.31636 1.44129 3.00029 2.20435 3.00029 3V18C3.00029 18.7956 3.31636 19.5587 3.87897 20.1213C4.44158 20.6839 5.20464 21 6.00029 21V21.406C6.00029 22.231 5.79729 22.916 5.46929 23.344C5.14029 23.77 4.72529 24 4.00029 24C3.27529 24 2.86029 23.77 2.53129 23.344C2.20329 22.917 2.00029 22.23 2.00029 21.406V16.594C2.00399 16.442 1.973 16.2912 1.90967 16.153C1.84635 16.0149 1.75235 15.8929 1.63483 15.7965C1.51731 15.7001 1.37935 15.6318 1.23145 15.5967C1.08355 15.5616 0.9296 15.5607 0.781293 15.594C0.555527 15.6446 0.354292 15.7719 0.21188 15.9543C0.0694684 16.1366 -0.00530798 16.3627 0.000293293 16.594V21.406C0.000293293 22.57 0.295293 23.686 0.969293 24.563C1.64329 25.438 2.73529 26 4.00029 26C5.26529 26 6.35729 25.438 7.03129 24.562C7.70529 23.686 8.00029 22.57 8.00029 21.406V21C8.79594 21 9.55901 20.6839 10.1216 20.1213C10.6842 19.5587 11.0003 18.7956 11.0003 18V3C11.0003 2.20435 10.6842 1.44129 10.1216 0.87868C9.55901 0.31607 8.79594 0 8.00029 0L6.00029 0ZM15.0003 0C14.2046 0 13.4416 0.31607 12.879 0.87868C12.3164 1.44129 12.0003 2.20435 12.0003 3V18C12.0003 18.7956 12.3164 19.5587 12.879 20.1213C13.4416 20.6839 14.2046 21 15.0003 21H22.0003C23.6573 21 25.9063 19.687 25.9063 10.5C25.9063 1.313 23.6573 0 22.0003 0H15.0003ZM15.5003 3H22.5003C22.6329 3 22.7601 3.05268 22.8538 3.14645C22.9476 3.24021 23.0003 3.36739 23.0003 3.5V6.5C23.0003 6.63261 22.9476 6.75979 22.8538 6.85355C22.7601 6.94732 22.6329 7 22.5003 7H15.5003C15.3677 7 15.2405 6.94732 15.1467 6.85355C15.053 6.75979 15.0003 6.63261 15.0003 6.5V3.5C15.0003 3.36739 15.053 3.24021 15.1467 3.14645C15.2405 3.05268 15.3677 3 15.5003 3ZM15.5003 9H16.5003C16.6329 9 16.7601 9.05268 16.8538 9.14645C16.9476 9.24021 17.0003 9.36739 17.0003 9.5V10.5C17.0003 10.6326 16.9476 10.7598 16.8538 10.8536C16.7601 10.9473 16.6329 11 16.5003 11H15.5003C15.3677 11 15.2405 10.9473 15.1467 10.8536C15.053 10.7598 15.0003 10.6326 15.0003 10.5V9.5C15.0003 9.36739 15.053 9.24021 15.1467 9.14645C15.2405 9.05268 15.3677 9 15.5003 9ZM18.5003 9H19.5003C19.6329 9 19.7601 9.05268 19.8538 9.14645C19.9476 9.24021 20.0003 9.36739 20.0003 9.5V10.5C20.0003 10.6326 19.9476 10.7598 19.8538 10.8536C19.7601 10.9473 19.6329 11 19.5003 11H18.5003C18.3677 11 18.2405 10.9473 18.1467 10.8536C18.053 10.7598 18.0003 10.6326 18.0003 10.5V9.5C18.0003 9.36739 18.053 9.24021 18.1467 9.14645C18.2405 9.05268 18.3677 9 18.5003 9ZM21.5003 9H22.5003C22.6329 9 22.7601 9.05268 22.8538 9.14645C22.9476 9.24021 23.0003 9.36739 23.0003 9.5V10.5C23.0003 10.6326 22.9476 10.7598 22.8538 10.8536C22.7601 10.9473 22.6329 11 22.5003 11H21.5003C21.3677 11 21.2405 10.9473 21.1467 10.8536C21.053 10.7598 21.0003 10.6326 21.0003 10.5V9.5C21.0003 9.36739 21.053 9.24021 21.1467 9.14645C21.2405 9.05268 21.3677 9 21.5003 9ZM15.5003 12H16.5003C16.6329 12 16.7601 12.0527 16.8538 12.1464C16.9476 12.2402 17.0003 12.3674 17.0003 12.5V13.5C17.0003 13.6326 16.9476 13.7598 16.8538 13.8536C16.7601 13.9473 16.6329 14 16.5003 14H15.5003C15.3677 14 15.2405 13.9473 15.1467 13.8536C15.053 13.7598 15.0003 13.6326 15.0003 13.5V12.5C15.0003 12.3674 15.053 12.2402 15.1467 12.1464C15.2405 12.0527 15.3677 12 15.5003 12ZM18.5003 12H19.5003C19.6329 12 19.7601 12.0527 19.8538 12.1464C19.9476 12.2402 20.0003 12.3674 20.0003 12.5V13.5C20.0003 13.6326 19.9476 13.7598 19.8538 13.8536C19.7601 13.9473 19.6329 14 19.5003 14H18.5003C18.3677 14 18.2405 13.9473 18.1467 13.8536C18.053 13.7598 18.0003 13.6326 18.0003 13.5V12.5C18.0003 12.3674 18.053 12.2402 18.1467 12.1464C18.2405 12.0527 18.3677 12 18.5003 12ZM21.5003 12H22.5003C22.6329 12 22.7601 12.0527 22.8538 12.1464C22.9476 12.2402 23.0003 12.3674 23.0003 12.5V13.5C23.0003 13.6326 22.9476 13.7598 22.8538 13.8536C22.7601 13.9473 22.6329 14 22.5003 14H21.5003C21.3677 14 21.2405 13.9473 21.1467 13.8536C21.053 13.7598 21.0003 13.6326 21.0003 13.5V12.5C21.0003 12.3674 21.053 12.2402 21.1467 12.1464C21.2405 12.0527 21.3677 12 21.5003 12ZM15.5003 15H16.5003C16.6329 15 16.7601 15.0527 16.8538 15.1464C16.9476 15.2402 17.0003 15.3674 17.0003 15.5V16.5C17.0003 16.6326 16.9476 16.7598 16.8538 16.8536C16.7601 16.9473 16.6329 17 16.5003 17H15.5003C15.3677 17 15.2405 16.9473 15.1467 16.8536C15.053 16.7598 15.0003 16.6326 15.0003 16.5V15.5C15.0003 15.3674 15.053 15.2402 15.1467 15.1464C15.2405 15.0527 15.3677 15 15.5003 15ZM18.5003 15H19.5003C19.6329 15 19.7601 15.0527 19.8538 15.1464C19.9476 15.2402 20.0003 15.3674 20.0003 15.5V16.5C20.0003 16.6326 19.9476 16.7598 19.8538 16.8536C19.7601 16.9473 19.6329 17 19.5003 17H18.5003C18.3677 17 18.2405 16.9473 18.1467 16.8536C18.053 16.7598 18.0003 16.6326 18.0003 16.5V15.5C18.0003 15.3674 18.053 15.2402 18.1467 15.1464C18.2405 15.0527 18.3677 15 18.5003 15ZM21.5003 15H22.5003C22.6329 15 22.7601 15.0527 22.8538 15.1464C22.9476 15.2402 23.0003 15.3674 23.0003 15.5V16.5C23.0003 16.6326 22.9476 16.7598 22.8538 16.8536C22.7601 16.9473 22.6329 17 22.5003 17H21.5003C21.3677 17 21.2405 16.9473 21.1467 16.8536C21.053 16.7598 21.0003 16.6326 21.0003 16.5V15.5C21.0003 15.3674 21.053 15.2402 21.1467 15.1464C21.2405 15.0527 21.3677 15 21.5003 15Z" fill="white"/>
</g>
<defs>
<clipPath id="clip0_888_3402">
<rect width="26" height="26" fill="white"/>
</clipPath>
</defs>
</svg>
