<svg width="24" height="24" viewBox="0 0 24 24" fill="none" xmlns="http://www.w3.org/2000/svg">
<g clip-path="url(#clip0_888_3668)">
<path d="M14.7549 10.4997C14.9199 11.8947 15.0024 13.3292 15.0024 14.8032V20.2497C15.0024 20.4486 14.9234 20.6394 14.7828 20.78C14.6421 20.9207 14.4514 20.9997 14.2524 20.9997C14.0535 20.9997 13.8628 20.9207 13.7221 20.78C13.5815 20.6394 13.5024 20.4486 13.5024 20.2497V14.8032C13.5062 13.3647 13.4201 11.9274 13.2444 10.4997H10.9344C10.6424 12.0597 10.4964 13.4772 10.4964 14.7522V20.2497C10.4964 20.4486 10.4174 20.6394 10.2768 20.78C10.1361 20.9207 9.94535 20.9997 9.74644 20.9997C9.54753 20.9997 9.35676 20.9207 9.21611 20.78C9.07545 20.6394 8.99644 20.4486 8.99644 20.2497V14.7522C8.99644 13.4562 9.13444 12.0387 9.41044 10.4997H3.74944C3.64208 10.4997 3.53598 10.4766 3.43831 10.4321C3.34064 10.3875 3.25367 10.3225 3.18328 10.2415C3.11289 10.1604 3.06072 10.0652 3.03029 9.96225C2.99987 9.8593 2.99191 9.75101 3.00694 9.64471C3.43444 6.61021 5.44594 4.60771 8.90344 3.70471C11.8544 2.93471 15.2324 2.79571 19.0374 3.28771C19.5796 3.35769 20.0778 3.62267 20.4389 4.03315C20.7999 4.44363 20.9992 4.97153 20.9994 5.51821V8.24971C20.9994 8.84645 20.7624 9.41875 20.3404 9.8407C19.9185 10.2627 19.3462 10.4997 18.7494 10.4997H14.7549ZM13.9014 8.99971H18.7494C18.9484 8.99971 19.1391 8.9207 19.2798 8.78005C19.4204 8.63939 19.4994 8.44863 19.4994 8.24971V5.51971C19.4998 5.33714 19.4336 5.16069 19.3132 5.02344C19.1928 4.8862 19.0265 4.79758 18.8454 4.77421C15.2224 4.30821 12.0349 4.43521 9.28294 5.15521C6.74044 5.81971 5.23594 7.08571 4.67494 8.99971H13.9014ZM2.99944 14.9997V20.2497C2.99944 20.4486 2.92042 20.6394 2.77977 20.78C2.63912 20.9207 2.44835 20.9997 2.24944 20.9997C2.05053 20.9997 1.85976 20.9207 1.71911 20.78C1.57846 20.6394 1.49944 20.4486 1.49944 20.2497V14.2497C1.49944 14.0508 1.57846 13.86 1.71911 13.7194C1.85976 13.5787 2.05053 13.4997 2.24944 13.4997H6.74944C6.94835 13.4997 7.13912 13.5787 7.27977 13.7194C7.42042 13.86 7.49944 14.0508 7.49944 14.2497V20.2497C7.49944 20.4486 7.42042 20.6394 7.27977 20.78C7.13912 20.9207 6.94835 20.9997 6.74944 20.9997C6.55053 20.9997 6.35976 20.9207 6.21911 20.78C6.07846 20.6394 5.99944 20.4486 5.99944 20.2497V14.9997H2.99944ZM17.9994 20.2497C17.9994 20.4486 17.9204 20.6394 17.7798 20.78C17.6391 20.9207 17.4484 20.9997 17.2494 20.9997C17.0505 20.9997 16.8598 20.9207 16.7191 20.78C16.5785 20.6394 16.4994 20.4486 16.4994 20.2497V17.2497C16.4994 17.0508 16.5785 16.86 16.7191 16.7194C16.8598 16.5787 17.0505 16.4997 17.2494 16.4997H21.7494C21.9484 16.4997 22.1391 16.5787 22.2798 16.7194C22.4204 16.86 22.4994 17.0508 22.4994 17.2497V20.2497C22.4994 20.4486 22.4204 20.6394 22.2798 20.78C22.1391 20.9207 21.9484 20.9997 21.7494 20.9997C21.5505 20.9997 21.3598 20.9207 21.2191 20.78C21.0785 20.6394 20.9994 20.4486 20.9994 20.2497V17.9997H17.9994V20.2497ZM1.52344 24.0387C1.32453 24.0387 1.13376 23.9597 0.993107 23.819C0.852455 23.6784 0.773438 23.4876 0.773438 23.2887C0.773438 23.0898 0.852455 22.899 0.993107 22.7584C1.13376 22.6177 1.32453 22.5387 1.52344 22.5387H22.4994C22.6984 22.5387 22.8891 22.6177 23.0298 22.7584C23.1704 22.899 23.2494 23.0898 23.2494 23.2887C23.2494 23.4876 23.1704 23.6784 23.0298 23.819C22.8891 23.9597 22.6984 24.0387 22.4994 24.0387H1.52344Z" fill="white"/>
</g>
<defs>
<clipPath id="clip0_888_3668">
<rect width="24" height="24" fill="white"/>
</clipPath>
</defs>
</svg>
