<svg width="24" height="24" viewBox="0 0 24 24" fill="none" xmlns="http://www.w3.org/2000/svg">
<path d="M6.8802 1.92188C6.87082 2.40281 6.85207 2.87109 6.81926 3.32812H15.0364C15.0505 2.86734 15.0552 2.39906 15.0458 1.92188H6.8802ZM6.74895 4.17188C6.14426 10.0547 3.59801 13.9641 1.02832 17.2125L6.43488 22.6219C11.2161 16.7391 14.5443 11.4609 14.9989 4.17188H13.6302C13.5271 6.46875 12.5989 9.31875 11.3521 12.0797C10.0911 14.8688 8.49738 17.5641 7.0302 19.4672L6.4302 18.8672C7.82238 17.0344 9.36926 14.4187 10.5833 11.7328C11.7974 9.04219 12.6786 6.26719 12.7864 4.17188H11.3802C11.2771 6.46875 10.3489 9.31875 9.10207 12.0797C8.10832 14.2781 6.90832 16.4203 5.72238 18.1594L5.1177 17.55C6.23801 15.8812 7.38645 13.8281 8.33332 11.7328C9.54738 9.04219 10.4286 6.26719 10.5364 4.17188H9.1302C9.02707 6.46875 8.09895 9.31875 6.85207 12.0797C6.10676 13.7344 5.24426 15.3516 4.35832 16.7906L3.74426 16.1766C4.56926 14.8078 5.38488 13.2844 6.08332 11.7328C7.29738 9.04219 8.17863 6.26719 8.28645 4.17188H6.74895ZM15.7489 11.1562C15.7021 11.2688 15.6505 11.4 15.5989 11.5641C15.4349 12.0938 15.2708 12.8344 15.1302 13.5797C14.9427 14.5781 14.8068 15.5391 14.7318 16.0781H16.7661C16.6911 15.5391 16.5552 14.5781 16.3677 13.5797C16.2271 12.8344 16.063 12.0938 15.8989 11.5641C15.8474 11.4 15.7958 11.2688 15.7489 11.1562ZM18.7489 11.1562C18.7021 11.2688 18.6505 11.4 18.5989 11.5641C18.4349 12.0938 18.2708 12.8344 18.1302 13.5797C17.9427 14.5781 17.8068 15.5391 17.7318 16.0781H19.7661C19.6911 15.5391 19.5552 14.5781 19.3677 13.5797C19.2271 12.8344 19.063 12.0938 18.8989 11.5641C18.8474 11.4 18.7958 11.2688 18.7489 11.1562ZM21.7489 11.1562C21.7021 11.2688 21.6505 11.4 21.5989 11.5641C21.4349 12.0938 21.2708 12.8344 21.1302 13.5797C20.9427 14.5781 20.8068 15.5391 20.7318 16.0781H22.7661C22.6911 15.5391 22.5552 14.5781 22.3677 13.5797C22.2271 12.8344 22.063 12.0938 21.8989 11.5641C21.8474 11.4 21.7958 11.2688 21.7489 11.1562ZM14.6708 16.9219V22.8281H16.8271V16.9219H14.6708ZM17.6708 16.9219V22.8281H19.8271V16.9219H17.6708ZM20.6708 16.9219V22.8281H22.8271V16.9219H20.6708Z" fill="white"/>
</svg>
