<svg width="24" height="24" viewBox="0 0 24 24" fill="none" xmlns="http://www.w3.org/2000/svg">
<path d="M8.68066 10.1137V12.0328C8.68066 13.8661 10.1668 15.3523 12.0002 15.3523C13.8335 15.3523 15.3197 13.8661 15.3197 12.0328V10.1137" stroke="white" stroke-width="0.99585" stroke-miterlimit="10" stroke-linecap="round" stroke-linejoin="round"/>
<path d="M16.3153 8.31516H7.68457V9.70935C10.5615 11.0372 13.4384 11.0372 16.3153 9.70935V8.31516Z" stroke="white" stroke-width="0.99585" stroke-miterlimit="10" stroke-linecap="round" stroke-linejoin="round"/>
<path d="M12.9959 4.80478V3.99984H11.0042V4.80478C9.47228 5.23871 8.34863 6.64428 8.34863 8.31519H15.6515C15.6515 6.64428 14.5279 5.23871 12.9959 4.80478Z" stroke="white" stroke-width="0.99585" stroke-miterlimit="10" stroke-linecap="round" stroke-linejoin="round"/>
<path d="M12.9961 4.80458V5.99133" stroke="white" stroke-width="0.99585" stroke-miterlimit="10" stroke-linecap="round" stroke-linejoin="round"/>
<path d="M11.0039 5.99146V4.8047" stroke="white" stroke-width="0.99585" stroke-miterlimit="10" stroke-linecap="round" stroke-linejoin="round"/>
<path d="M8.41895 15.1956L10.3406 19.9998H13.6601L15.5817 15.1956" stroke="white" stroke-width="0.99585" stroke-miterlimit="10" stroke-linecap="round" stroke-linejoin="round"/>
<path d="M12 19.9998V15.3525" stroke="white" stroke-width="0.99585" stroke-miterlimit="10" stroke-linecap="round" stroke-linejoin="round"/>
<path d="M10.0646 14.7259C7.41802 15.0279 5.36133 17.2723 5.36133 19.9997M18.6393 19.9998C18.6393 17.2724 16.5826 15.0279 13.9361 14.7259" stroke="white" stroke-width="0.99585" stroke-miterlimit="10" stroke-linecap="round" stroke-linejoin="round"/>
</svg>
