<svg width="18" height="17" viewBox="0 0 18 17" fill="none" xmlns="http://www.w3.org/2000/svg">
<path d="M12.3024 9.7896V11.923H14.4357V9.7896M10.1692 16.1898H16.5693V9.78966H10.1692V16.1898ZM10.1692 16.1898L0.569336 16.1898V12.9898C0.569336 11.2224 2.00203 9.78973 3.76939 9.78973H4.83607M4.83607 9.78973V8.45599C3.59601 8.01513 2.7027 6.8432 2.7027 5.45189V2.70221C2.7027 1.52399 3.65785 0.568848 4.83607 0.568848H6.96943C8.14766 0.568848 9.1028 1.52399 9.1028 2.70221V5.45189C9.1028 6.8432 8.20949 8.01513 6.96943 8.45599V9.78973M4.83607 9.78973C4.83607 10.3789 5.31362 10.8564 5.90275 10.8564M5.90275 10.8564C6.49188 10.8564 6.96943 10.3789 6.96943 9.78973M5.90275 10.8564V16.1898M6.96943 9.78973L8.03612 9.78975C8.85572 9.78975 9.60332 10.0979 10.1695 10.6046M6.96919 5.14367H4.83582C3.6576 5.14367 2.70246 4.18852 2.70246 3.0103H9.10255C9.10255 4.18852 8.14741 5.14367 6.96919 5.14367Z" stroke="white" stroke-width="1.1378" stroke-miterlimit="10" stroke-linecap="round" stroke-linejoin="round"/>
</svg>
