<svg width="24" height="24" viewBox="0 0 24 24" fill="none" xmlns="http://www.w3.org/2000/svg">
<path d="M8.566 15.429C8.946 15.8097 9.398 16.001 9.922 16.003C10.446 16.005 10.8983 15.8157 11.279 15.435L13.006 13.708L10.292 10.994L8.566 12.721C8.19733 13.089 8.013 13.5403 8.013 14.075C8.013 14.6097 8.19733 15.061 8.566 15.429ZM15.432 8.574C15.0533 8.208 14.602 8.02 14.078 8.01C13.554 7.99933 13.1017 8.18467 12.721 8.566L11 10.286L13.714 13L15.434 11.279C15.8153 10.8923 16.002 10.4397 15.994 9.921C15.986 9.40233 15.7987 8.95333 15.432 8.574ZM5.616 20C5.17133 20 4.791 19.8417 4.475 19.525C4.159 19.2083 4.00067 18.8287 4 18.386V5.615C4 5.171 4.15833 4.791 4.475 4.475C4.79167 4.159 5.17167 4.00067 5.615 4H10.315C10.2243 3.48933 10.3467 3.02833 10.682 2.617C11.0167 2.20567 11.4593 2 12.01 2C12.5607 2 13.0033 2.20567 13.338 2.617C13.6727 3.02833 13.7883 3.48933 13.685 4H18.385C18.829 4 19.209 4.15833 19.525 4.475C19.841 4.79167 19.9993 5.17167 20 5.615V18.385C20 18.829 19.8417 19.209 19.525 19.525C19.2083 19.841 18.8283 19.9993 18.385 20H5.616ZM12 4.442C12.2167 4.442 12.396 4.37133 12.538 4.23C12.68 4.08867 12.7507 3.90933 12.75 3.692C12.7493 3.47467 12.6783 3.29567 12.537 3.155C12.3957 3.01433 12.2167 2.94333 12 2.942C11.7833 2.94067 11.6043 3.01167 11.463 3.155C11.3217 3.29833 11.2507 3.47733 11.25 3.692C11.2493 3.90667 11.3203 4.086 11.463 4.23C11.6057 4.374 11.7847 4.44467 12 4.442Z" fill="white"/>
</svg>
