<svg width="16" height="18" viewBox="0 0 16 18" fill="none" xmlns="http://www.w3.org/2000/svg">
<path d="M1.5603 2.40781C2.9091 1.36781 5.0043 0.54541 7.7459 0.54541C10.4875 0.54541 12.5827 1.36701 13.9315 2.40781C14.1211 2.55341 14.2163 2.62701 14.2939 2.75661C14.3595 2.86541 14.4059 3.03021 14.4083 3.15661C14.4099 3.30781 14.3603 3.44221 14.2587 3.71021C14.0107 4.37421 13.8859 4.70541 13.8355 5.03341C13.7723 5.44781 13.7715 5.54941 13.8299 5.96381C13.8763 6.29341 14.1299 6.99341 14.6355 8.39341C14.8404 8.95482 14.9455 9.54777 14.9459 10.1454C14.9459 12.5454 12.9459 14.4454 10.9459 14.9454C9.1923 15.3838 8.2795 16.0118 7.7459 16.5454C7.2123 16.0118 6.2995 15.3838 4.5459 14.9454C2.5459 14.4454 0.545898 12.5454 0.545898 10.1454C0.545898 9.48941 0.670698 8.90701 0.856298 8.39341C1.3627 6.99341 1.6155 6.29341 1.6619 5.96381C1.7203 5.54941 1.7195 5.44781 1.6563 5.03341C1.6059 4.70541 1.4819 4.37341 1.2323 3.71021C1.1323 3.44221 1.0819 3.30781 1.0843 3.15661C1.08967 3.01612 1.12862 2.87895 1.1979 2.75661C1.2755 2.62701 1.3707 2.55341 1.5603 2.40781Z" stroke="white" stroke-width="1.09091" stroke-linecap="round" stroke-linejoin="round"/>
<path d="M8.29836 5.00784L8.86156 6.14384C8.90934 6.22896 8.97448 6.30307 9.05277 6.36137C9.13105 6.41967 9.22072 6.46085 9.31596 6.48224L10.3368 6.65264C10.9896 6.76224 11.1432 7.23984 10.6728 7.71104L9.87916 8.51104C9.8096 8.5898 9.75855 8.68313 9.72975 8.78418C9.70096 8.88524 9.69515 8.99145 9.71276 9.09504L9.93996 10.0854C10.1192 10.8694 9.70636 11.1726 9.01836 10.763L8.06156 10.1918C7.96368 10.1411 7.85502 10.1146 7.74476 10.1146C7.63449 10.1146 7.52584 10.1411 7.42796 10.1918L6.47116 10.763C5.78636 11.1726 5.37036 10.8662 5.54956 10.0854L5.77676 9.09504C5.79436 8.99145 5.78855 8.88524 5.75976 8.78418C5.73097 8.68313 5.67992 8.5898 5.61036 8.51104L4.81756 7.71104C4.35036 7.23984 4.50076 6.76224 5.15356 6.65264L6.17356 6.48224C6.26828 6.46035 6.35738 6.41886 6.43509 6.36044C6.5128 6.30202 6.57741 6.22796 6.62476 6.14304L7.18796 5.00704C7.49516 4.39104 7.99436 4.39184 8.29836 5.00784Z" stroke="white" stroke-width="1.09091" stroke-linecap="round" stroke-linejoin="round"/>
</svg>
