<svg width="24" height="24" viewBox="0 0 24 24" fill="none" xmlns="http://www.w3.org/2000/svg">
<path d="M22.8471 1.26123L16.7124 2.64704C15.6281 5.40484 18.5456 8.56829 21.4614 7.40486L22.8471 1.26123ZM16.1206 5.90771L11.1474 10.8984C10.9738 11.9617 11.2631 12.6951 11.9414 13.0767L12.4438 13.3594L12.0366 13.7681L2.7026 23.0947H3.92862L18.6563 8.22217C17.571 7.79345 16.6573 6.9452 16.1206 5.90771ZM10.2553 10.9278L4.93362 11.8053L9.50093 12.085L3.78359 14.483L8.71287 14.0391L5.55757 16.9307L8.49026 16.0737L11.0611 13.5044C10.4077 12.898 10.1339 11.9592 10.2554 10.9277L10.2553 10.9278ZM0.790992 11.4873V13.002L4.77241 12.2724L0.790992 11.4873ZM13.1543 15.0234L11.1533 17.042L11.1123 20.2178L13.1543 15.0234H13.1543ZM5.56193 15.1465L0.791039 16.0078V18.0747L5.56198 15.1464L5.56193 15.1465ZM5.94429 18.0176L0.782227 20.231V23.2837H1.27737L1.33737 23.2236L3.26065 21.3003L5.94424 18.0175L5.94429 18.0176ZM9.94338 18.731L8.10795 23.2881H9.92576L9.94338 18.731V18.731ZM12.6987 18.8232L12.1963 23.2881H13.4223L12.6987 18.8232Z" fill="white"/>
</svg>
