<svg width="12" height="18" viewBox="0 0 12 18" fill="none" xmlns="http://www.w3.org/2000/svg">
<path d="M1.2002 1.60005C1.2002 1.38788 1.28448 1.18439 1.43451 1.03436C1.58454 0.884334 1.78802 0.800049 2.0002 0.800049H10.0002C10.2124 0.800049 10.4159 0.884334 10.5659 1.03436C10.7159 1.18439 10.8002 1.38788 10.8002 1.60005V11.2C10.8002 11.4122 10.7159 11.6157 10.5659 11.7657C10.4159 11.9158 10.2124 12 10.0002 12H2.0002C1.78802 12 1.58454 11.9158 1.43451 11.7657C1.28448 11.6157 1.2002 11.4122 1.2002 11.2V1.60005Z" stroke="white" stroke-width="1.6" stroke-linejoin="round"/>
<path d="M3.5998 10.4C4.04163 10.4 4.3998 10.0419 4.3998 9.60005C4.3998 9.15822 4.04163 8.80005 3.5998 8.80005C3.15798 8.80005 2.7998 9.15822 2.7998 9.60005C2.7998 10.0419 3.15798 10.4 3.5998 10.4Z" fill="white"/>
<path d="M8.39961 10.4C8.84144 10.4 9.19961 10.0419 9.19961 9.60005C9.19961 9.15822 8.84144 8.80005 8.39961 8.80005C7.95778 8.80005 7.59961 9.15822 7.59961 9.60005C7.59961 10.0419 7.95778 10.4 8.39961 10.4Z" fill="white"/>
<path d="M1.2002 7.20007H10.8002M4.8002 14.4001H7.2002M3.6002 16.8001H8.4002" stroke="white" stroke-width="1.6" stroke-linecap="round" stroke-linejoin="round"/>
<path d="M3.1998 12L0.799805 16.8M8.7998 12L11.1998 16.8" stroke="white" stroke-width="1.6" stroke-linecap="round"/>
<path d="M10.8002 5.20007V9.20007M1.2002 5.20007V9.20007" stroke="white" stroke-width="1.6" stroke-linecap="round" stroke-linejoin="round"/>
</svg>
